<svg width="531" height="799" viewBox="0 0 531 799" fill="none" xmlns="http://www.w3.org/2000/svg">
<path d="M462.42 149.262V151.477M298.068 380.065V382.28M237.377 389.368L235.605 390.254M217.885 448.73H216.999L217.885 444.743V448.73ZM217.885 448.73H218.328V449.173M217.885 448.73L218.328 449.173M218.328 449.173H218.771V449.616L218.328 449.173ZM263.957 502.776L263.514 504.991M456.661 770.79C459.067 772.474 461.552 775.858 464.635 775.553C468.108 775.203 470.953 770.325 472.84 767.672C473.624 766.569 474.767 764.823 476.158 764.504C477.194 764.265 479.108 765.116 480.14 765.474C476.937 767.508 477.336 767.858 475.502 771.047C474.395 772.97 471.52 778.437 472.127 780.528C472.804 782.884 476.26 783.925 478.368 784.625C484.017 786.118 489.652 787.328 495.202 784.625C497.732 783.536 502.986 780.612 503.057 777.453C503.083 776.155 501.927 774.516 501.24 773.444L495.645 765.031C498.653 765.922 501.325 769.913 503.619 772.102C504.935 773.355 506.508 774.937 508.492 774.467C509.556 774.215 510.712 773.333 511.553 772.66C512.767 771.681 513.37 771.039 514.375 769.865L517.352 765.917C523.076 768.363 520.715 770.875 518.092 774.777C517.374 775.836 515.824 778.259 514.615 778.68C513.179 779.176 511.841 777.839 510.264 777.653C508.603 777.458 506.308 778.804 504.948 779.695C503.3 780.776 500.213 783.243 499.309 785.006C498.489 786.61 498.897 788.218 497.572 789.552C495.836 791.301 491.787 791.651 489.443 791.611C485.133 791.532 486.143 789.627 482.355 787.447L468.622 782.193C465.362 781.396 464.759 784.727 461.534 784.386C459.824 784.204 456.537 781.826 455.532 780.497C453.45 777.75 456.542 776.115 456.661 770.79ZM456.661 770.79L456.218 770.347H456.661V770.79ZM11.89 151.477C10.1933 151.34 4.31469 151.061 3.27807 150.228C1.1118 148.487 1.42191 144.62 1.06751 142.174C-0.0444195 134.422 0.358707 126.523 0.371997 118.695C0.376427 114.886 0.699817 114.979 1.13396 111.607C2.56041 100.439 3.71221 98.6629 6.31705 88.5714L8.58964 79.7114C12.7184 65.7525 19.3501 50.5886 26.7526 38.0695C29.8846 32.7801 32.8571 27.4907 36.8264 22.7506L51.7599 7.05952C53.4832 5.33625 56.8411 1.64607 59.3264 1.35369C62.64 0.963852 65.5948 4.29521 65.3999 7.50252C65.2404 10.1118 61.9179 15.9815 60.6199 18.5775L56.5975 26.9945C53.9306 33.6616 51.184 44.2449 49.8506 51.3595C48.969 56.0553 47.7818 60.72 47.7729 65.5354V77.4964L48.0299 92.5584C48.3533 95.0126 47.8793 95.5575 49.1019 97.8744C49.1861 94.543 49.9259 93.8121 50.7499 90.7864C52.3624 84.8458 51.3834 85.9666 54.0635 79.2684C54.8565 77.2882 55.7292 74.6302 57.5588 73.3942C59.9554 71.7773 65.9093 73.6911 68.5939 74.3954C69.7236 74.6922 71.4291 74.9315 72.1335 75.9149C73.0771 77.2306 72.8246 79.9329 73.0859 81.4746C73.2543 82.4536 73.6219 83.3485 74.8048 82.8567C76.1648 82.2941 77.702 79.7956 78.526 78.5685L85.3659 68.3131C89.8136 61.8364 102.049 49.4014 108.34 44.5683C112.291 41.5337 117.541 38.5745 122.64 38.5125H124.855C130.357 38.6144 126.977 42.1672 125.192 44.3113L113.124 58.4519C105.363 68.694 96.5339 85.8603 93.2158 98.3174L91.9267 104.076L90.3275 111.164V115.151L89.4149 124.454C89.3972 134.772 88.1656 147.105 84.5906 156.793C81.782 164.417 77.3963 168.232 70.8089 172.595C63.6456 177.34 61.1382 175.501 61.0629 181.601C60.9832 188.277 62.4141 190.621 67.5218 194.998C68.9261 196.203 71.5088 197.988 73.458 197.66C77.2102 197.027 75.8857 191.653 77.4185 189.278C78.8228 187.099 84.7014 184.964 87.1999 183.914C88.2719 183.466 90.0661 182.691 91.1869 182.598C95.3909 182.252 95.6169 187.489 98.7223 188.122C100.928 188.57 103.13 185.234 105.044 184.299C107.091 183.298 110.382 184.126 112.451 184.782C115.193 185.65 119.495 187.05 121.399 189.283C123.397 191.618 122.25 193.283 125.338 195.268C128.895 197.554 138.862 201.488 143.018 201.536H152.321L158.966 202.032H185.103C186.946 202.001 189.227 202.586 190.862 202.032C196.235 200.677 201.551 195.161 209.025 194.674C215.461 194.258 221.274 196.641 225.859 201.111C227.068 202.289 228.322 203.547 229.066 205.08C230.904 208.877 230.851 213.4 231.25 217.484L232.061 224.129V225.901C232.114 229.56 234.001 232.267 237.133 228.51C239.153 226.087 239.184 223.549 239.149 220.585C239.096 216.532 235.427 210.48 234.076 205.966L232.991 201.979V189.575C232.951 187.719 232.849 185.393 234.448 184.082C236.127 182.704 242.821 183.435 244.013 185.278C244.66 186.284 244.429 188.765 244.482 190.018L245.581 199.321C246.923 205.47 252.797 210.746 252.882 217.927C252.904 219.779 252.576 226.322 253.334 227.576C255.008 230.331 261.813 229.676 263.438 226.761C264.581 224.71 264.612 219.083 265.139 216.598C266.318 211.039 269.073 205.882 269.64 200.207C269.968 196.951 270.004 189.642 272.281 187.378C275.191 184.49 278.828 185.145 282.545 185.145V193.562L282.071 196.663V200.65L278.576 222.357C278.598 225.742 279.205 226.685 282.563 227.673L283.892 216.155C283.914 214.184 283.759 211.796 284.623 209.971C285.482 208.15 288.33 206.591 289.978 205.063C295.64 199.831 298.453 195.737 306.485 194.634C314.782 193.5 321.972 200.655 327.306 201.922C328.245 202.01 329.436 201.979 330.407 201.922H356.101L362.745 202.422H372.048C376.35 202.4 380.474 200.664 384.452 199.148C387.341 198.05 390.185 197.159 392.852 195.516C395.944 193.611 395.749 191.042 397.951 188.84C399.993 186.798 408.959 183.604 411.918 183.418C416.424 183.125 415.011 187.227 418.581 187.737C422.316 188.273 422.954 184.977 424.996 183.626C426.449 182.66 428.482 182.908 430.081 183.342L438.494 186.957C439.557 187.449 441.369 188.299 441.985 189.327C443.159 191.276 442.038 195.436 444.306 197.146C445.839 198.453 447.385 197.864 448.944 197.146C451.407 195.773 456.174 191.52 457.366 189.092C458.128 187.537 457.933 186.341 457.906 184.702C458.101 182.633 458.646 181.087 457.906 179.019C456.329 175.395 449.666 173.698 445.586 170.779C441.232 167.669 437.936 163.562 435.393 158.884C432.177 152.961 430.781 145.687 429.957 139.073L429.178 133.757V129.327L428.309 119.581L427.419 107.62V104.519C426.28 95.6727 419.401 80.5221 415.024 72.6234C408.95 61.6592 405.951 56.0287 396.856 46.9295L391.346 41.2458C390.832 40.5946 390.074 39.5978 390.685 38.7606C391.478 37.6752 394.371 38.1669 395.527 38.3264C400.808 39.0485 404.126 40.1073 408.631 43.1285C418.368 49.6672 426.267 58.443 433.182 67.8257L439.974 77.9394C441.675 80.4822 442.831 82.6529 445.586 84.1414C447.225 79.7734 445.905 77.4211 446.924 75.9149C447.66 74.8207 451.328 73.8771 452.674 73.4386C454.836 72.7298 458.478 71.5026 460.631 72.6323C462.863 73.8062 464.228 77.4344 465.003 79.7114L470.394 96.1024C472.002 92.6337 471.28 83.0649 471.28 78.8254V69.0794C471.263 57.7785 467.661 41.6489 463.811 30.9815C462.465 27.247 461.122 23.4461 459.319 19.9065L455.669 13.2615C454.455 10.7984 452.825 7.55568 454.203 4.86225C454.588 4.10915 455.084 3.5554 455.678 2.96621C459.164 -0.493616 461.703 1.76125 464.635 4.28192L469.508 8.83152C473.748 13.071 481.881 21.8114 485.31 26.5914C488.863 31.5485 493.732 40.4794 496.629 46.0435C506.268 64.5608 508.647 72.7696 513.932 92.5584L518.043 110.278L518.367 114.265C518.77 117.548 519.12 117.623 519.124 121.353V134.643L518.309 143.06C518.083 145.182 517.915 147.964 516.333 149.581C513.476 152.505 508.271 149.346 506.973 153.701C506.738 154.494 506.734 155.522 506.72 156.35L505.834 166.982V171.855L503.925 184.259C503.026 189.07 497.953 204.385 495.933 209.067C493.989 213.568 492.593 216.904 489.736 220.988C488.735 222.419 487.104 224.506 485.456 225.13C481.709 226.552 475.936 221.733 472.609 221.143C469.668 220.625 464.901 225.937 462.722 227.886C455.687 234.163 454.367 233.618 448.43 237.889C446.171 239.519 440.456 244.516 438.498 245.318C435.654 246.572 431.933 244.569 429.678 245.318C427.025 246.115 425.589 250 422.511 250.731C418.041 251.795 410.869 251.595 406.159 251.595H399.514C395.603 251.591 391.842 250.523 387.996 249.956L374.263 247.847L355.215 243.413C346.762 241.3 338.544 238.575 330.407 235.474C328.719 234.832 323.19 232.431 321.803 233.702C320.878 234.557 320.674 237.091 320.674 238.305C320.674 244.804 323.965 246.696 324.568 251.595C324.807 253.553 324.701 257.85 326.225 259.241C327.691 260.588 333.113 259.724 334.332 261.151C335.164 262.125 335.218 264.517 335.408 265.771C335.847 268.589 336.387 271.45 338.172 273.745L353.482 286.694L362.821 294.269L370.281 299.563C372.46 301.176 377.404 305.203 379.579 306.053C382.574 307.223 382.977 306.775 385.781 307.045C391.594 307.604 389.888 307.94 396.856 307.856C401.774 307.794 413.504 303.528 417.677 300.857L425.651 294.991C429.537 292.369 433.293 292.457 436.687 290.127L455.775 273.178L469.508 260.203C472.215 257.881 473.358 256.14 477.039 256.025C476.844 260.025 472.113 269.116 470.009 272.859L459.824 291.022L453.241 302.097C449.658 308.485 447.886 314.125 441.396 318.324C435.863 321.908 432.084 320.832 426.094 322.085C423.747 322.577 417.146 325.412 414.576 326.498L393.755 334.547C391.111 335.517 385.826 337.378 383.123 336.864C381.6 336.576 379.19 335.898 377.825 335.202C375.575 334.046 367.875 327.45 365.59 325.461L349.137 312.432C345.508 309.672 341.171 306.151 337.052 304.312C336.786 305.322 336.431 306.784 335.771 307.612C334.611 309.061 330.473 310.186 328.635 310.514C328.666 311.848 328.732 314.102 329.512 315.214C331.058 317.407 335.931 316.955 338.013 318.98C339.803 320.716 339.023 322.896 341.185 325.558C343.541 328.469 350.519 333.306 353.815 335.765L370.649 348.169C373.528 350.322 379.318 354.65 382.68 355.492C385.458 356.183 388.311 354.942 391.097 354.832L404.387 356.586C408.795 356.635 410.049 355.811 414.133 354.446C419.281 352.723 426.914 349.356 431.41 346.397L441.156 339.491C445.179 337.612 449.254 339.061 455.146 334.852L467.922 324.845L481.509 314.054L490.958 306.447C491.871 306.027 492.899 306.093 493.873 306.084C493.856 311.914 491.782 314.51 488.938 319.374L479.183 335.397L467.674 353.928C465.579 357.512 462.779 363.129 459.754 365.796C453.999 370.868 445.564 370.492 438.498 372.756L418.12 380.659L410.146 383.822C405.101 386.037 397.933 390.112 392.426 390.25C385.104 390.427 379.89 384.96 374.565 380.654L355.471 366.779L347.241 361.016C345.779 362.673 344.095 364.095 341.925 364.693C337.703 365.849 332.161 364.25 332.768 370.762C333.317 376.685 338.323 372.844 342.771 375.604C344.162 376.468 347.085 380.69 348.357 382.2L358.316 392.469L382.237 415.523C385.028 418.194 392.081 425.672 395.084 427.311C397.858 428.822 404.037 429.287 407.488 430.137C412.317 431.333 412.521 432.33 418.12 432.339H422.55C427.951 432.33 433.222 431.249 438.498 430.261C442.826 429.451 448.187 428.423 452.231 426.726C455.704 425.273 458.859 423.204 461.977 421.118C468.286 416.892 472.401 411.009 476.681 404.869L489.74 385.824L495.645 377.744C496.434 376.884 498.042 375.418 499.114 376.778C500.346 378.342 499.034 383.051 498.746 384.938L492.668 408.86L489.16 423.922L487.618 432.339C486.821 436.065 487.056 439.728 484.336 442.847C483.348 443.977 478.692 448.376 477.403 448.863C475.755 449.487 466.877 449.611 464.635 449.616C458.992 449.625 448.767 451.862 442.928 452.956L418.563 457.736L403.944 461.245C401.92 461.479 399.293 461.874 397.299 461.245C393.193 460.102 386.716 452.172 383.819 448.73L375.88 440.295L360.973 425.251L353.443 417.866C352.539 416.971 350.678 415.097 349.478 414.818C347.839 414.433 347.839 416.023 345.832 416.949C343.692 417.933 339.727 417.879 338.062 419.297C336.524 420.604 336.573 422.912 335.988 424.223C335.439 425.468 334.176 426.292 333.06 426.992C327.244 430.638 319.996 431.076 315.788 433.026C313.688 434 308.992 436.827 314.016 438.107L316.231 438.523H319.775L325.091 438.984H339.267C341.428 439.01 347.719 439.414 349.097 441.008C351.072 443.299 349.912 448.943 352.867 452.38C354.173 453.904 359.06 457.537 360.903 458.919L370.79 466.596L394.641 483.913C403.369 488.79 410.966 485.641 417.088 493.03C419.077 495.426 419.432 496.654 419.449 499.675V509.421C419.387 514.453 417.686 514.205 417.677 519.61V531.128L418.563 542.203C418.617 546.916 419.317 552.361 420.858 556.822C422.227 560.782 424.708 564.503 424.765 568.783C424.788 570.564 424.885 574.289 424.5 575.871C422.577 583.774 416.614 585.741 411.032 590.618L403.944 597.573L396.56 604.666L383.27 617.956C381.134 620.095 379.066 622.957 376.035 623.715C374.786 618.58 377.431 614.602 379.292 609.982L391.27 582.073C393.866 575.29 393.755 568.814 393.755 561.695V541.76L392.945 533.343C392.546 529.156 392.511 524.988 391.124 520.939C390.274 518.449 388.843 516.194 387.673 513.851C386.521 511.552 385.139 508.017 383.562 506.107C381.095 503.113 369.258 494.523 365.474 491.701L354.329 483.466C353.345 482.783 351.161 481.016 349.947 481.304C348.791 481.578 348.171 483.142 347.918 484.17C347.404 486.265 348.029 488.906 345.415 490.496C341.911 492.627 334.557 491.71 332.4 493.721C330.836 495.178 330.601 499.139 328.9 501.212C327.261 503.214 323.58 504.154 321.954 506.843C321.232 508.034 320.39 511.481 320.009 512.965L317.422 524.926C316.146 531.739 312.252 548.25 312.244 554.164V557.265C314.423 557.265 316.926 557.486 318.756 556.069C320.452 554.757 321.644 551.586 323.841 551.182C325.728 550.841 328.099 552.294 329.516 553.411C333.415 556.481 335.399 559.369 335.683 564.353C336.019 570.298 333.109 574.32 328.635 577.935C327.04 579.224 323.677 580.863 321.595 580.035C318.654 578.861 319.961 574.334 318.135 572.593C317.063 571.569 314.494 571.87 313.13 572.074C310.791 572.42 309.205 572.951 307.446 574.635C305.887 576.128 304.956 578.263 302.936 579.224C301.532 579.889 300.003 579.782 298.511 579.933L286.55 580.301C285.686 580.301 282.545 580.084 282.837 581.63C283.165 583.38 287.834 583.57 289.651 584.35C293.921 586.188 295.401 589.706 295.41 594.034C295.414 596.816 295.653 605.445 296.344 607.767C297.04 610.11 298.612 611.448 299.401 613.526C299.972 615.032 299.857 617.216 299.84 618.842C299.786 622.776 298.378 623.639 298.404 625.487C298.435 627.214 299.906 628.499 299.764 630.803C299.627 633.044 297.899 634.617 298.298 635.809C298.586 636.659 300.402 637.572 301.169 638.041C303.189 639.291 304.828 640.216 305.257 642.764C305.771 645.816 302.874 649.019 301.195 651.367C300.455 652.403 299.109 654.282 299.525 655.602C300.748 659.469 309.16 659.456 309.559 664.471C309.838 667.953 307.809 670.305 306.414 673.331C305.962 674.305 304.992 676.215 305.187 677.269C305.479 678.819 307.393 679.245 308.7 679.471C310.463 679.772 316.186 680.489 317.232 681.615C318.264 682.727 317.847 684.441 317.467 685.735C316.142 690.249 315.159 691.077 314.459 696.367H324.205C325.064 696.384 326.26 696.322 326.854 697.075C329.241 700.101 321.245 707.769 327.306 708.239H329.521H332.179C337.308 707.725 332.768 713.333 334.677 715.11C336.378 716.691 341.287 711.903 341.805 715.885C342.066 717.374 341.238 719.451 341.805 720.616C342.607 722.535 348.561 721.321 350.342 721.175L351.228 728.706C354.678 728.059 357.793 725.343 359.848 726.415C362.139 727.611 361.275 732.174 363.751 733.924L369.39 736.569C378.662 741.194 379.19 740.392 388.439 743.125L399.071 746.97C404.082 748.84 408.436 751.13 413.566 747.941C416.233 746.279 418.391 743.989 420.335 741.553C425.195 735.448 428.296 727.647 430.75 720.289C433.076 713.307 435.513 705.28 440.607 699.787C443.814 696.318 448.134 693.496 452.674 692.185C456.511 691.077 461.689 690.55 465.078 688.88C469.628 686.638 473.854 680.662 477.668 677.938C479.724 676.471 482.369 676.724 485.009 675.2C487.733 673.623 492.775 668.267 495.052 665.8L507.659 649.892L517.778 638.67C519.465 636.907 524.998 631.352 526.655 630.497C527.51 630.058 527.962 630.045 528.786 629.917C528.866 630.927 528.901 632.03 528.786 633.018L523.656 645.422L513.866 664.914C511.022 669.893 506.472 677.632 505.046 683.077C504.005 687.055 506.805 687.201 506.065 691.051L501.063 702.126C500.54 703.539 499.783 705.519 500.359 706.994C501.821 710.746 508.674 711.203 510.442 713.373C511.429 714.583 511.128 717.002 511.15 718.517C511.168 719.394 511.155 720.231 511.527 721.051C512.364 722.867 516.768 726.978 518.681 727.598C520.524 728.196 523.147 728.13 524.843 729.14C526.815 730.318 528.002 733.663 528.622 735.794C529.384 738.403 531.187 745.788 530.323 748.198C529.699 749.934 528.042 751.237 526.952 752.707C525.535 754.621 524.445 757.368 524.024 759.716C523.439 762.989 525.938 763.166 526.19 766.803C526.496 771.256 523.333 775.876 520.741 779.283C519.727 780.616 518.429 782.424 516.909 783.186C515.877 783.704 514.504 783.655 513.365 783.699C511.146 783.58 508.776 782.574 506.796 783.699C504.178 785.343 504.572 789.011 502.964 791.594C500.696 795.235 494.392 796.879 490.329 796.927C488.646 796.945 483.671 797.171 482.395 796.476C480.699 795.545 480.185 793.428 478.789 791.842C477.141 789.968 474.142 788.555 471.723 788.05C467.914 787.252 466.842 790.557 462.42 790.717C456.657 790.925 456.435 788.4 452.674 788.825L432.296 795.833C427.658 797.007 420.136 798.691 415.462 798.699H398.185C394.074 798.695 389.348 797.331 385.338 796.298C378.281 794.478 372.443 792.896 365.846 789.618L352.114 782.211C350.036 781.591 349.137 782.583 347.241 782.539C344.37 782.472 342.08 780.426 339.267 781.48C336.254 782.614 330.46 786.738 327.323 786.597C324.253 786.459 324.652 782.22 324.648 780.093C324.643 778.826 324.865 776.363 323.257 775.956C321.821 775.593 319.589 777.688 318.428 778.459C315.805 780.2 312.762 781.693 309.586 781.865L308 771.676C307.756 770.449 307.57 768.912 306.033 768.708C304.947 768.567 303.016 769.882 302.05 770.427C298.502 772.416 298.674 772.988 294.524 773.005C294.191 771.242 293.735 769.488 293.655 767.689C293.553 765.342 293.766 760.854 292.061 759.02C290.696 757.554 287.551 757.966 285.664 757.944L272.444 757.058V751.742C273.074 748.313 274.837 745.079 271.78 742.128C269.392 739.825 260.749 739.559 259.332 735.714C258.623 733.791 259.713 730.221 260.204 728.263C261.197 724.289 261.657 722.247 261.299 718.074C259.017 717.781 257.657 717.033 255.54 716.248C253.745 715.584 249.32 714.144 248.292 712.665C247.26 711.181 248.305 708.974 248.819 707.442L252.572 697.253C253.249 695.396 253.714 693.766 252.572 692.016C250.582 689.31 243.725 687.387 242.188 683.515C241.404 681.544 242.418 679.759 243.353 678.08C244.177 676.596 247.45 670.602 247.703 669.344C248.115 667.293 246.445 665.995 244.868 665.051C242.369 663.558 237.381 661.764 236.628 658.712C235.72 655.017 239.968 651.119 240.611 648.08C241.005 646.192 239.583 644.97 238.334 643.791C236.358 641.922 232.681 639.335 232.189 636.562C231.742 634.05 233.899 631.197 233.616 629.031C233.345 626.975 230.674 624.463 230.386 620.614C230.098 616.751 232.916 614.328 232.947 609.096L233.39 601.122C233.394 597.214 233.19 591.681 235.255 588.275C236.243 586.653 237.82 585.028 239.592 584.288C242.383 583.123 243.729 584.204 246.237 581.187C242.077 579.627 234.918 580.354 230.289 580.301C228.645 580.279 225.965 580.097 224.627 579.091C222.86 577.754 221.65 573.589 221.429 571.441C219.741 571.303 213.871 570.316 212.688 571.016C210.961 572.034 210.628 575.973 209.503 577.576C207.244 580.797 200.253 577.665 197.99 575.702C194.042 572.282 193.954 568.233 193.963 563.467C193.967 561.655 193.905 560.827 194.49 559.055C195.252 556.733 196.678 554.7 198.224 552.835C199.682 551.076 203.868 547.178 206.349 547.767C208.675 548.321 209.41 551.218 210.965 552.697C212.671 554.323 215.32 554.23 217.442 553.721C216.697 550.664 217.189 549.827 216.923 547.076L215.984 539.988L214.544 532.014L211.975 517.838C211.439 515.167 210.832 508.544 209.574 506.47C207.78 503.525 200.577 505.097 198.641 503.653C197.582 502.86 197.578 500.871 197.498 499.675C197.396 498.248 196.585 493.229 195.85 492.201C193.905 489.473 189.001 490.828 185.555 489.26C182.972 488.086 181.395 482.42 180.673 479.74C176.61 481.791 161.721 493.07 157.451 496.423C154.939 498.39 149.171 502.213 147.497 504.588L143.443 512.947C142.114 515.317 140.245 516.85 139.381 519.61C138.123 523.637 137.529 533.272 137.219 537.773L136.391 543.975V548.405L135.93 553.721C135.921 560.056 136.426 571.29 138.18 577.2L143.492 589.604L152.144 609.982C154.004 614.62 156.733 619.076 156.751 624.158C153.388 623.471 150.695 620.308 148.334 617.956L134.158 603.492L117.953 587.282C113.647 583.597 108.805 581.55 106.546 575.871C103.09 567.179 107.117 562.926 109.842 555.493C110.581 553.482 111.033 550.571 111.37 548.405L111.64 544.418L112.451 536.444L112.894 523.154L113.173 518.724L111.122 503.662C111.091 500.995 111.024 498.776 111.538 496.131C111.808 494.722 112.088 493.889 112.801 492.627C117.519 484.245 128.496 486.394 134.601 483.262C137.715 481.662 140.595 479.217 143.461 477.206L164.282 461.856L172.513 455.388C173.957 454.21 175.769 453.014 176.717 451.388C177.603 449.86 178.6 442.896 178.901 440.756L183.331 440.353L194.406 439.87L206.367 438.984L212.126 438.541C211.634 436.88 211.528 435.077 210.203 433.805C208.892 432.552 205.919 432.131 204.152 431.834C201.308 431.355 192.97 429.88 190.906 428.405C186.795 425.464 190.255 421.096 187.251 418.982C185.501 417.751 183.738 418.646 180.23 417.312C179.038 416.856 178.041 416.156 176.726 416.608C175.773 416.931 174.271 418.469 173.505 419.191L166.497 426.137C159.781 432.853 152.773 439.617 146.819 447.033C141.963 453.08 139.128 461.462 131.057 464.031C128.549 464.829 126.117 464.709 123.526 464.678C120.319 464.638 115.313 463.052 112.008 462.281L106.692 461.338L97.8319 460.115C87.253 458.56 76.6698 456.58 65.9359 456.704C62.0907 456.753 58.2809 458.06 54.4179 457.497C52.389 457.205 48.3134 455.1 46.6743 453.847C39.985 448.739 40.9375 442.599 38.975 435.44L30.8592 408.417C29.5701 404.35 26.1191 393.142 26.066 389.368V386.71C29.1537 387.144 30.1637 388.894 32.1882 391.122L41.5621 402.472C45.9345 407.939 53.5408 418.557 58.2809 422.806C60.8547 425.114 64.2702 426.837 67.225 428.671C71.6993 431.435 72.5189 432.295 77.8969 433.442L99.6039 436.326L111.968 437.092L120.868 433.048C123.349 432.33 128.408 431.936 130.171 430.979C133.786 429.012 142.225 419.802 145.308 416.391L155.719 405.741L164.282 396.456C169 391.552 170.869 389.714 175.078 384.052L180.372 376.787C182.126 375.453 187.588 376.069 189.395 374.492C190.618 373.42 191.602 367.462 190.264 366.336C189.218 365.455 185.32 365.154 183.774 364.892L175.357 362.956C173.35 363.182 169.11 367.054 167.369 368.445L152.551 380.933C147.629 385.368 142.601 390.932 135.93 392.642C134.49 393.014 131.743 392.93 130.171 392.912C126.171 392.859 122.285 390.958 118.653 389.461L103.148 383.684C97.5085 381.797 89.3839 378.989 83.6559 377.992C79.4784 377.265 71.2386 376.539 67.7832 374.585C63.557 372.193 58.7416 365.663 56.0039 361.579L42.7538 342.428L32.9679 327.915C30.4206 324.008 27.7981 320.614 27.395 315.83C31.8958 315.972 36.1575 319.755 39.7989 322.178L52.9649 331.632C57.9796 335.486 61.2933 338.264 66.8972 341.528C68.337 342.37 70.5475 343.65 72.1379 344.014C75.5889 344.798 79.8682 344.585 83.0888 346.069L93.4019 353.135C95.2846 354.22 99.1431 355.275 101.376 356.081C104.596 357.242 114.365 360.617 117.324 360.932C119.734 361.189 122.551 359.926 124.855 359.169C128.195 358.07 129.311 357.875 132.829 357.915C135.208 357.942 139.554 358.881 141.631 358.163C144.661 357.109 151.359 350.65 154.093 348.289L171.892 333.001L177.709 328.008C179.738 326.068 180.695 325.129 181.727 322.475C182.254 321.119 182.715 318.351 183.641 317.487C184.403 316.774 189.555 316.016 190.862 315.83L190.419 310.514C188.638 310.129 186.547 309.482 185.236 308.148C183.915 306.806 183.716 304.565 181.962 304.773C180.885 304.897 179.149 306.47 178.334 307.196L171.077 313.615L151.009 331.924C147.9 334.861 142.601 339.535 138.145 339.694C135.101 339.801 127.987 337.378 124.855 336.452L108.464 331.557L96.0599 327.286L88.5289 325.709C84.471 325.129 82.2117 325.527 78.526 322.75C72.3062 318.063 64.731 304.693 60.1769 297.853L44.7473 272.859C44.003 271.508 42.1114 268.022 41.8235 266.657C41.633 265.758 41.6108 264.708 42.5943 264.274C43.8302 263.724 45.3852 264.659 46.3686 265.337L53.9351 271.14L74.313 288.803C77.2413 291.292 80.8074 294.765 84.0989 296.661C87.448 298.589 90.4028 297.853 94.7131 300.073L104.034 305.77C108.132 307.785 111.321 308.41 115.552 309.712C117.093 310.186 122.861 311.905 124.155 311.865L135.487 309.819C137.254 309.562 139.23 309.836 140.803 309.048C142.172 308.361 145.977 304.977 147.443 303.78L164.286 288.918L175.357 278.658C177.895 276.301 180.69 274.162 182.449 271.087C183.911 268.531 183.752 263.428 184.474 261.846C185.346 259.941 187.623 260.402 189.351 258.564C190.959 256.849 191.322 253.323 192.727 251.192C194.835 247.998 197.418 249.159 197.507 244.507V240.52C197.502 239.018 197.467 234.265 195.987 233.534C194.995 233.047 191.952 234.327 190.862 234.686L176.686 239.696L152.764 246.115L141.246 248.189C136.878 249.004 129.48 250.705 125.298 250.709H103.591C101.385 250.705 95.5992 250.288 93.8626 249.119C92.1881 247.989 91.1426 245.641 88.9719 244.835C86.0126 243.741 83.873 246.824 80.5549 245.331L71.9518 238.775L57.5145 229.215L49.5449 221.609C47.4451 220.049 46.3155 220.953 44.2289 221.883C41.5133 223.088 35.6392 226.601 32.8527 224.94C31.7629 224.284 30.1991 221.724 29.4726 220.585L23.2441 208.624C18.6014 198.595 15.1372 185.929 13.6886 174.956V170.969L12.7405 163.438V158.122L11.89 151.477ZM403.501 45.1575H403.058L403.501 45.6005V45.1575ZM403.944 45.6005C404.356 47.3459 405.938 48.6705 407.045 50.0438L412.508 57.5615L425.08 81.4834C428.247 88.3189 431.229 97.5466 432.536 104.962L432.868 108.506L434.383 118.695C435.676 128.517 436.292 138.48 439.46 147.933C440.66 151.526 441.608 153.475 443.407 156.793C447.965 165.188 453.002 169.41 462.863 169.636C468.148 169.755 470.829 168.484 475.267 165.853C478.289 164.059 480.765 162.636 483.1 159.89C485.067 157.569 487.463 152.718 487.973 149.705L488.3 146.161L488.832 140.402C488.407 133.492 481.917 122.474 475.267 119.953C474.116 119.519 472.933 119.586 471.723 119.581H461.091C459.776 119.577 458.314 119.71 457.197 118.873C454.951 117.194 453.738 111.076 454.774 108.524C456.108 105.233 462.394 105.321 464.153 102.579C465.003 101.161 464.427 98.5743 464.153 96.9884C463.754 94.0425 461.889 87.9468 460.857 85.0274C460.29 83.4238 459.284 80.6063 458.163 79.3925C456.413 77.4964 453.627 77.6338 452.71 80.2342C451.226 84.4427 452.231 91.194 445.143 89.7808C444.116 89.5726 443.34 89.1296 442.485 88.5448C439.327 86.3786 434.981 79.5652 432.593 76.2073C425.705 66.5366 414.878 50.4823 403.944 45.6005ZM112.451 50.0305C109.328 51.2531 106.967 53.9377 104.477 56.1084C97.2338 62.4167 91.2888 69.9832 85.6095 77.6825C83.8995 80.0082 79.2613 87.2158 77.259 88.4341C73.8833 90.4852 69.4843 87.1361 68.0446 84.1414L66.689 80.2696C65.453 78.4134 62.5071 78.5773 61.0851 80.2696C58.7593 82.9985 54.8919 93.2938 54.4401 96.9884C54.1876 99.0705 53.7933 101.241 55.2508 103.018C57.5189 105.791 63.4418 105.441 64.7221 108.546C65.617 110.717 63.7386 117.867 61.7761 119.13C60.9212 119.679 59.4061 119.581 58.4049 119.581H48.2159C47.0021 119.581 45.8592 119.537 44.6719 119.852C37.5086 121.739 31.9313 130.351 30.5978 137.301C30.4251 138.852 30.4871 140.593 30.5978 142.174C30.5491 153.568 34.762 161.392 45.1149 166.646C46.7629 167.483 49.1152 168.692 50.8739 169.162C54.9008 170.11 55.6273 169.242 59.2909 169.162C61.4926 169.175 63.8095 169.445 65.8562 168.462C67.544 167.647 69.8432 164.896 71.0614 163.438C74.7117 159.066 78.1804 154.335 79.8594 148.819L81.9105 139.073V135.529L82.7876 130.656V126.226L83.6559 120.91V117.366C84.4311 110.137 86.3316 99.9476 88.427 93.0014C91.3242 83.375 96.6712 72.557 102.262 64.2064L108.171 55.9135C109.638 54.0263 111.454 52.21 112.451 50.0305ZM464.635 129.07C466.638 128.831 468.919 128.818 470.798 129.682C473.89 131.104 477.425 136.22 478.138 139.516C478.453 140.969 478.377 143.286 478.368 144.832C478.351 148.686 477.27 150.689 474.824 153.652C472.091 156.962 470.62 157.67 466.407 157.679H459.762C458.708 157.679 457.37 157.763 456.404 157.316C451.301 154.933 449.184 146.418 450.242 141.288C451.717 134.156 457.831 130.103 464.635 129.07ZM51.7599 130.847C54.7679 130.475 60.7041 130.298 63.2779 131.937C70.8266 136.752 70.9108 150.769 63.681 156.275C60.9079 158.384 57.7183 158.158 54.4179 158.122C42.0937 157.976 35.9759 141.058 45.1194 133.465C47.2812 131.671 49.0975 131.29 51.7599 130.847ZM55.7469 139.073C55.0248 140.903 55.3084 142.666 56.1899 144.389L55.7469 139.073ZM464.192 139.516C463.138 141.328 462.079 146.835 462.863 148.819L464.192 139.516ZM56.6329 144.832C55.9463 146.578 56.2387 148.066 57.0759 149.705L56.6329 144.832ZM437.612 199.764C437.612 195.179 438.37 191.817 433.625 189.628C432.575 189.146 431.286 188.583 430.166 189.159C427.286 190.634 429.288 193.912 424.322 194.005C421.753 194.05 417.345 193.841 415.037 192.756C412.999 191.799 412.423 189.987 410.957 189.216C409.362 188.379 407.231 189.456 405.716 190.12L404.396 190.749C401.105 192.659 403.723 193.806 403.701 196.22C403.692 197.607 402.615 199.507 401.862 200.646C400.773 202.289 400.059 203.073 398.185 203.773C396.861 204.265 394.389 204.597 393.463 205.342C392.143 206.409 391.545 209.196 391.394 210.839C391.133 213.719 393.06 212.966 394.699 215.296C396.241 217.493 396.444 220.213 396.413 222.8C396.347 227.571 393.627 227.766 395.009 230.331C397.344 234.65 399.785 232.241 403.058 232.715C404.977 232.989 409.81 235.647 411.241 236.994C414.138 239.723 411.108 243.781 416.791 244.405C420.047 244.764 420.508 241.898 422.338 240.653C423.866 239.608 425.253 240.179 427.423 238.748C418.112 237.052 411.103 234.487 404.693 227.19C401.45 223.496 399.966 222.499 399.957 217.484C399.953 214.64 399.975 210.427 400.839 207.738C402.199 203.503 406.921 198.599 411.032 196.867C415.396 195.033 417.753 195.861 422.107 196.544L430.524 198.311L437.612 199.764ZM91.6299 238.748L96.906 240.697C99.5241 242.066 99.9981 244.609 103.573 243.852C104.264 243.705 104.88 243.488 105.358 242.943C106.887 241.202 105.42 238.673 108.114 236.462C109.859 235.027 113.744 233.277 115.995 232.825C118.914 232.241 121.364 232.967 123.251 229.879C124.895 227.204 121.537 226.216 121.966 222.357C122.201 220.218 123.393 217.13 124.478 215.269C126.516 211.77 128.297 211.442 126.653 207.738C126.365 207.083 125.94 206.183 125.457 205.661C124.195 204.292 122.48 204.553 120.908 203.902C119.388 203.268 118.498 201.984 117.634 200.646C116.744 199.277 116.203 198.311 116.039 196.663C115.937 195.622 116.123 193.686 115.742 192.822C115.109 191.396 111.698 189.983 110.236 189.642C107.405 188.986 106.174 191.945 104.034 193.296C102.448 194.302 100.104 193.988 98.2749 194.054C97.0079 194.023 94.403 194.457 93.4417 194.054C91.497 193.389 90.828 190.745 89.6497 190.045C88.3561 189.278 82.6503 190.926 81.9725 192.353C81.5384 193.279 82.1453 194.745 82.2383 195.777C82.3579 197.04 82.1054 198.094 81.8839 199.321L100.49 195.777H103.148C109.213 195.808 112.376 199.627 115.84 204.07C118.148 207.025 119.681 208.686 119.521 212.611C119.419 215.194 117.979 222.459 116.611 224.572C113.084 230.017 105.748 234.996 99.6039 237.025L91.6299 238.748ZM225.859 211.282C225.766 201 216.157 200.167 208.139 200.207C206.096 200.216 204.728 200.296 202.823 201.177C199.133 202.879 196.554 207.052 195.429 210.839C194.291 214.671 194.875 218.897 196.887 222.357C197.542 223.491 199.341 225.848 200.913 225.277C202.517 224.692 201.458 221.746 201.255 220.585C200.581 216.736 201.082 212.939 203.793 209.971C206.278 207.247 208.152 206.777 211.683 206.857C217.672 206.998 220.086 210.795 225.859 211.282ZM303.384 200.517C300.721 201.204 297.186 204.177 295.6 206.409C294.271 208.288 294.865 210.192 297.182 210.693C300.136 211.331 304.859 206.733 308.257 206.241C310.432 205.926 313.657 208.181 315.336 209.475C320.612 213.542 315.314 219.788 314.724 222.8C314.29 225.002 316.248 226.911 317.963 226.907C319.766 226.907 320.506 224.178 320.918 222.8C322.007 219.132 323.677 211.765 322.313 208.181C321.365 205.692 318.72 202.546 316.231 201.541C314.219 200.726 305.909 200.513 303.384 200.517ZM421.221 209.953H420.778L421.221 210.396V209.953ZM98.7179 210.396H98.2749L98.7179 210.839V210.396ZM420.778 210.396H420.335L420.778 210.839V210.396ZM99.1609 210.839C97.8053 214.219 99.8697 211.916 96.5029 217.041C99.5906 217.068 99.8564 217.241 102.705 218.37L103.591 213.497C100.942 213.404 100.543 213.121 99.1609 210.839ZM420.335 211.282L415.905 213.94L416.791 217.484L422.107 217.041L420.335 211.282ZM290.094 214.383C288.742 219.482 289.146 226.295 289.208 231.66C289.225 233.078 289.261 235.116 290.404 236.139C291.299 236.941 293.363 237.286 294.524 237.565L302.055 239.448L310.472 241.592C311.313 241.885 312.912 242.212 313.577 241.592C315.079 239.829 312.483 233.72 311.468 232.121C308.624 227.633 301.935 222.561 297.625 219.314C295.241 217.515 292.902 215.46 290.094 214.383ZM224.53 219.256C220.237 220.886 214.722 224.869 210.797 227.527C208.719 228.936 205.472 231.235 204.285 233.432C202.583 236.582 203.217 241.513 202.38 244.95C206.477 246.111 214.11 243.032 218.328 241.849C220.131 241.344 223.068 240.644 224.202 239.098C225.252 237.667 224.897 235.563 225.013 233.875C225.314 229.49 226.235 223.354 224.53 219.256ZM227.631 300.768C233.877 303.267 238.489 305.167 245.351 305.198C247.105 305.207 251.814 306.199 252.886 304.87C253.44 304.184 253.32 302.518 253.325 301.654L253.768 295.452V271.973L254.211 264.885V252.924V237.419C254.193 236.511 254.157 234.044 252.536 234.836C250.782 235.691 250.671 240.976 250.649 242.735V248.494L250.206 252.924V258.24L249.781 263.113V273.745C249.772 275.606 249.448 279.695 248.483 281.232C247.933 282.096 247.171 282.658 246.237 283.044C245.351 283.411 238.329 284.435 237.394 284.306C234.2 283.863 234.28 278.432 234.276 275.96L234.719 261.784L235.605 250.709L236.491 236.09C235.817 236.458 235.618 236.445 235.078 237.105C233.31 239.275 231.534 247.732 231.153 250.709L229.606 258.683L226.616 277.289C226 281.267 224.977 285.206 224.973 289.25V291.022C226.138 290.708 227.83 289.99 228.96 290.118C232.034 290.473 234.634 294.34 233.186 297.215C231.782 300.015 229.801 299.355 227.631 300.768ZM289.208 295.009V284.377C289.203 280.501 288.711 280.089 288.397 276.846L287.307 265.771L284.848 250.266L283.063 239.191C282.873 237.933 282.718 235.572 281.491 234.863C278.474 233.131 278.576 240.432 278.576 241.849V260.455L278.133 270.201L277.295 280.815C276.024 283.934 270.743 283.54 267.944 283.491C267.151 283.473 266.158 283.5 265.476 283.039C264.032 282.065 263.912 278.875 263.974 277.289L264.4 271.53V251.152C264.4 245.69 264.67 240.179 263.957 234.761H262.185L261.299 239.191V242.292L260.413 250.709L259.93 262.227L259.527 267.543V291.465L260.289 300.768C260.39 301.636 260.351 303.395 260.865 304.046C261.844 305.282 265.644 304.604 267.058 304.436C272.755 303.763 275.94 304.95 282.12 302.097C280.822 300.086 279.497 298.416 279.497 295.895C279.497 292.989 281.464 289.791 284.778 291.031C286.745 291.771 287.799 293.592 289.208 295.009ZM307.814 282.162C308.195 279.278 308.85 271.517 307.579 269.023C306.928 267.747 305.107 267.295 303.827 266.879C300.637 265.846 296.021 264.026 292.752 264.885L294.967 275.517C295.303 276.851 295.618 278.689 296.584 279.695C298.245 281.431 305.333 282.109 307.814 282.162ZM190.419 265.771H189.09C186.782 273.758 189.993 280.43 193.52 287.478L199.726 284.133L200.165 274.631C198.729 274.631 195.624 274.83 194.45 274.179C192.399 273.036 191.283 268.022 190.419 265.771ZM329.964 303.426C329.964 301.729 330.079 299.253 329.698 297.667C328.874 294.234 327.359 292.134 327.306 288.364C327.288 287.013 327.204 285.188 327.678 283.934C328.559 281.604 330.597 280.222 330.805 275.96C330.881 274.352 330.296 267.942 328.958 267.131C327.793 266.431 327.15 267.49 326.836 268.451C326.242 270.263 326.787 272.651 324.621 273.541C321.99 274.627 318.654 271.459 317.086 273.129C316.293 273.98 316.235 276.168 316.235 277.289C316.235 278.959 316.505 282.069 317.444 283.447C318.99 285.715 324.298 287.638 326.061 291.465C327.425 294.424 327.753 301.729 329.964 303.426ZM219.657 267.543C216.414 267.552 213.902 268.106 210.797 269.005C209.835 269.28 208.303 269.647 207.691 270.489C207 271.446 207.235 276.735 207.253 278.175C207.27 279.442 207.284 281.334 208.427 282.167C210.194 283.447 216.72 281.143 218.102 279.703C220.268 277.444 219.657 270.657 219.657 267.543ZM191.305 294.123C188.381 296.781 189.666 300.081 190.419 303.426C192.722 301.884 191.898 296.533 191.305 294.123ZM431.853 298.256C428.017 299.178 423.995 303.209 424.411 307.413C424.814 311.533 428.735 316.078 433.182 315.396C436.78 314.847 441.746 312.37 443.052 308.742C444.328 305.189 441.657 300.52 438.459 298.983C436.456 298.017 434.011 298.017 431.853 298.256ZM431.853 301.096C433.174 300.781 434.813 300.529 436.089 301.096C439.38 302.695 442.707 310.084 435.397 312.016C428.367 313.872 427.175 305.659 429.018 303.027C429.793 301.924 430.679 301.552 431.853 301.096ZM86.7569 303.572C84.6792 303.882 82.7389 304.17 80.9979 305.451C80.1385 306.084 79.2392 306.979 78.6278 307.856C73.7371 314.847 82.2427 321.39 88.9719 320.619C90.0351 320.499 91.1293 320.158 91.9931 319.507C94.3942 317.691 96.6756 312.162 95.6833 309.185C94.31 305.065 90.8103 303.475 86.7569 303.572ZM84.5419 306.354C86.7657 305.938 89.7959 306.142 91.4039 307.976C94.0708 311.019 91.6919 316.003 88.0859 316.911C80.8783 318.723 76.4749 309.194 84.5419 306.354ZM383.566 312.45C381.865 312.893 380.576 313.309 379.176 314.439C369.838 321.957 379.11 333.351 388.439 331.663C391.168 331.171 395.306 327.282 396.125 324.672C396.737 322.741 396.36 320.291 395.47 318.506C393.273 314.102 388.338 311.883 383.566 312.45ZM135.93 314.669C131.203 315.329 125.887 318.794 125.028 323.804C124.111 329.164 130.95 334.702 135.93 334.383C139.824 334.135 144.785 331.362 145.751 327.348C146.19 325.532 145.392 323.667 144.652 322.032C142.787 317.925 140.843 314.749 135.93 314.669ZM384.452 315.6C387.97 315.09 390.973 315.919 392.666 319.374C393.968 322.028 392.462 327.401 389.25 328.123C381.914 329.762 376.487 320.849 381.378 316.969C382.419 316.14 383.216 315.928 384.452 315.6ZM132.39 318.758C134.366 318.382 137.711 318.147 139.403 319.325C142.668 321.549 142.185 326.493 139.403 328.868C137.861 330.161 135.651 330.52 133.715 330.409C132.66 330.347 130.928 330.104 130.082 329.443C128.35 328.088 127.827 322.798 128.953 321.04C129.763 319.773 131.039 319.228 132.39 318.758ZM257.755 320.26C255.03 320.716 254.862 322.169 254.414 324.69L254.135 329.12C253.932 331.269 252.638 338.485 253.44 340.146C253.914 341.13 254.658 341.462 255.54 341.967L257.755 326.462V320.26ZM244.465 321.146C242.546 321.146 235.312 320.894 236.393 324.597C236.765 325.877 238.515 326.143 239.552 326.706L244.022 330.449L244.465 321.146ZM267.058 340.638C269.747 340.191 270.101 338.742 270.535 336.208V325.133C270.571 322.936 270.637 321.895 268.387 321.146C266.818 327.525 267.058 334.126 267.058 340.638ZM282.992 325.576V323.813C282.673 320.375 279.878 322.364 281.561 324.562C282.044 325.186 282.381 325.244 282.992 325.576ZM297.625 328.234C298.103 326.254 298.413 323.321 296.203 322.169C295.578 321.868 294.865 321.819 294.231 322.169C292.685 322.958 292.326 325.616 293.58 326.816C294.541 327.738 296.358 328.039 297.625 328.234ZM189.976 322.918C182.963 328.921 188.536 339.083 188.638 344.182C188.744 349.153 186.556 349.95 184.837 353.928C184.071 355.7 183.955 358.677 186.445 359.058C189.914 359.585 189.869 353.064 189.976 350.827L190.401 346.84V340.195C190.428 338.215 190.481 337.254 191.057 335.322L192.651 330.892C193.298 327.999 191.965 324.938 189.976 322.918ZM225.859 322.918C224.472 322.967 222.705 322.998 222.297 324.695C222.182 325.186 222.275 325.678 222.66 326.024C223.276 326.573 225.048 326.458 225.859 326.462V322.918ZM332.214 323.627C329.702 324.451 328.767 327.06 328.985 329.563C329.401 334.414 332.591 334.972 332.657 341.081V349.498L333.383 353.485C333.556 354.694 333.556 355.833 334.07 356.98C335.156 359.39 338.416 359.302 338.762 356.98C339.222 353.897 336.936 351.788 335.443 349.48C334.154 347.487 333.326 344.78 333.144 342.41C332.808 337.936 335.377 335.796 335.28 328.234C335.244 325.78 335.102 323.804 332.214 323.627ZM211.683 324.69C209.649 325.386 209.658 326.227 209.468 328.234C211.842 327.822 212.019 326.949 211.683 324.69ZM309.311 325.009C307.357 326.56 308.638 329.559 310.299 328.845C311.57 328.296 311.703 325.151 309.311 325.009ZM326.42 341.524C325.122 339.034 323.615 338.915 321.104 338.162L314.016 336.35L310.472 335.938L289.651 333.107C288.477 333.094 285.331 332.992 284.374 333.373C283.099 333.878 282 335.486 281.114 336.527C279.457 338.472 277.619 340.301 275.692 341.976C270.3 346.663 264.643 349.724 257.312 348.98C250.077 348.244 244.917 341.21 239.955 336.509C238.87 335.477 236.34 332.779 235.162 332.265C234.298 331.898 230.971 332.181 229.846 332.265C222.607 332.766 211.337 334.649 204.152 336.173C201.153 336.811 196.311 337.679 194.849 340.638C198.371 341.028 201.622 339.646 205.038 339.003L228.96 335.326C229.85 335.309 231.237 335.282 232.061 335.588C233.562 336.142 239.459 341.852 240.921 343.296C246.051 348.364 248.961 351.775 256.426 352.665C257.963 352.852 258.787 353.095 260.413 353.002C266.477 352.657 272.741 351.704 277.211 347.248L284.078 339.752C285.85 337.683 286.687 336.053 289.651 336.283L294.967 337.019L316.674 339.827C320.581 340.39 321.967 341.511 326.42 341.524ZM446.029 345.64C443.433 346.078 440.873 346.712 439.114 348.842C435.863 352.772 436.647 361.428 441.174 364.148C442.924 365.198 446.676 365.123 448.687 364.875C449.879 364.728 451.616 364.454 452.674 363.918C456.218 362.128 459.271 357.033 458.983 353.042C458.544 347.039 450.991 345.17 446.029 345.64ZM325.534 424.365C326.92 424.25 329.534 423.962 330.411 422.748C331.089 421.813 330.85 418.114 330.85 416.834L329.964 404.873C329.928 402.122 329.512 401.165 329.206 398.671L328.949 394.684L327.323 382.723V378.293L326.42 369.433L325.79 360.13C325.201 355.691 326.096 348.639 320.656 347.177C319.363 346.831 318.423 346.853 317.117 346.84L319.332 364.033C320.311 363.944 321.843 363.554 322.774 364.033C324.515 364.675 324.559 368.015 323.496 369.296C322.645 370.323 321.015 370.523 319.775 370.762L320.661 381.394C322.18 380.543 324.918 379.839 325.37 382.302C326.003 385.78 321.427 383.893 321.241 387.162L322.685 397.785L324.205 411.075C325.06 410.76 325.928 410.375 326.863 410.433C330.03 410.628 330.699 414.158 328.143 415.487C326.907 416.134 325.799 415.545 324.648 415.062L325.534 424.365ZM446.49 350.149C448.59 349.848 450.929 349.737 452.541 351.394C455.518 354.446 453.179 360.524 449.13 361.304C447.336 361.654 444.404 361.118 443.256 359.59C441.763 357.605 442.68 352.9 444.328 351.208C445.028 350.486 445.582 350.411 446.49 350.149ZM73.4669 351.841C69.5552 352.502 67.6548 353.6 65.5239 357.033C64.9347 357.986 64.3898 358.996 64.2747 360.13C63.7741 365.171 70.7425 371.759 75.6819 371.4C76.7185 371.329 78.712 370.536 79.6689 370.075C81.3611 369.26 83.6027 367.878 84.6659 366.314C87.634 361.951 85.7601 355.696 81.4409 352.993C79.3765 351.7 75.8414 351.616 73.4669 351.841ZM204.595 353.042L198.393 352.156L197.507 358.358L203.266 359.244L204.595 353.042ZM72.5809 356.396C74.9908 355.957 79.3411 355.944 80.9935 358.088C82.5307 360.081 82.4775 367.67 75.2389 367.174C73.6131 367.063 71.6329 366.531 70.5785 365.207C69.3116 363.612 68.9705 359.652 70.1887 357.973C70.8842 357.011 71.5487 356.803 72.5809 356.396ZM390.654 360.272C385.409 361.463 381.67 364.937 380.629 370.319C379.429 376.552 383.332 384.167 390.211 384.477C393.357 384.619 397.14 383.804 399.771 382.032C405.77 377.987 406.744 369.46 401.862 364.135C399.156 361.18 394.544 359.851 390.654 360.272ZM130.614 363.842C126.481 364.901 121.032 367.537 119.255 371.648C116.203 378.723 123.14 387.326 130.171 388.216C131.5 388.38 133.312 387.835 134.601 387.437C137.591 386.497 141.175 383.946 142.331 380.951C143.049 379.108 142.863 377.513 142.641 375.635C141.897 369.22 137.826 363.08 130.614 363.842ZM202.823 373.42C202.823 371.723 203.208 366.948 202.052 365.809C201.317 365.087 199.403 364.764 198.486 364.56C197.52 366.443 196.736 370.177 198.486 371.763C199.186 372.282 201.791 372.981 202.823 373.42ZM389.343 364.848C391.598 364.374 396.17 364.068 397.955 365.699C400.56 368.069 401.924 374.279 400.325 377.403C399.554 378.904 397.991 379.999 396.413 380.512C394.451 381.15 390.216 381.283 388.439 380.18C382.747 376.654 383.159 367.519 389.343 364.848ZM239.592 367.661C237.616 366.957 236.659 366.695 234.719 367.661C236.637 368.458 237.802 368.972 239.592 367.661ZM258.641 367.342L250.667 368.1C249.528 368.126 247.978 367.909 247.123 368.8C246.272 369.69 245.559 373.012 245.249 374.306C244.27 378.355 243.406 386.342 247.606 388.956C248.864 389.736 250.56 389.793 251.996 389.811H259.527L265.729 389.368C268.555 389.337 274.46 389.629 276.688 387.791C280.1 384.969 279.187 376.68 277.898 372.977C277.481 371.785 276.702 369.61 275.736 368.813C274.779 368.02 272.75 368.029 271.488 367.847C267.235 367.236 262.938 366.943 258.641 367.342ZM130.614 367.484C133.316 367.36 136.395 368.454 137.932 370.806C139.168 372.702 139.044 374.372 139.031 376.521C139.009 380.229 137.13 383.179 133.272 383.932C127.26 385.102 123.083 381.762 123.083 375.635C123.083 374.24 123.052 373.012 123.707 371.728C125.121 368.986 127.814 368.095 130.614 367.484ZM225.013 368.104H221.429L222.315 377.407V384.052L222.758 389.368H225.859L225.013 385.824V368.104ZM305.537 370.762C304.881 372.569 304.916 379.458 305.537 381.376C305.745 382.32 305.904 382.439 306.485 383.166C307.636 379.104 306.945 374.656 305.537 370.762ZM257.772 371.936C260.377 371.391 266.313 371.258 268.121 373.54C269.06 374.727 268.847 377.248 268.83 378.736C268.776 382.581 266.876 386.413 262.628 386.688C259.513 386.887 256.257 385.443 254.587 382.719C252.452 379.223 254.078 373.535 257.772 371.936ZM290.98 372.534H285.664V373.42C287.755 373.42 289.163 373.708 290.98 372.534ZM235.605 374.749L231.175 373.42C232.291 374.908 233.85 375.382 235.605 374.749ZM213.898 374.306C212.104 376.667 211.603 383.153 214.341 384.938L213.898 374.306ZM202.38 377.85C199.008 379.272 199.026 378.55 195.735 377.85C195.85 379.245 196.173 382.723 196.913 383.808C197.852 385.195 199.939 385.306 200.785 387.596C201.587 389.771 200.422 391.822 197.95 391.379C197.099 391.229 196.071 390.644 195.292 390.254L194.849 398.228C196.661 398.246 198.69 398.215 200.019 399.681C201.671 401.497 200.085 403.929 198.375 404.43C197.077 404.811 195.965 404.093 194.849 403.544C194.849 404.984 194.556 410.255 195.287 411.199C196.218 412.391 198.774 411.943 199.438 413.795C200.754 417.454 195.115 417.06 194.636 419.107C193.839 422.5 198.605 424.467 199.713 423.195C200.178 422.659 200.306 419.922 200.422 419.049L201.051 406.645L201.937 394.684L202.38 377.85ZM285.664 380.508C286.492 382.16 289.788 384.127 291.538 382.727C292.202 382.196 293.327 379.13 289.651 379.454C287.958 379.604 287.201 379.857 285.664 380.508ZM338.363 379.87C334.513 381.478 335.24 384.526 335.28 388.039L337.14 407.088C337.543 409.728 338.921 413.472 342.341 412.639C344.932 412.01 344.1 408.758 343.152 407.092C341.632 404.421 339.196 404.16 338.124 401.325C335.514 394.409 341.411 389.04 340.994 383.166C340.857 381.195 340.56 379.781 338.363 379.87ZM187.761 413.29L188.647 399.114V386.71C188.629 385.235 188.492 383.25 187.65 381.961C186.649 380.49 184.85 380.366 183.845 381.961C181.457 385.669 185.014 390.626 186.379 393.816C186.884 394.99 187.203 396.509 187.278 397.785C187.402 399.925 186.999 401.781 185.741 403.544C184.124 405.803 181.576 407.438 182.108 410.61C182.524 413.095 185.754 413.197 187.761 413.29ZM236.491 380.951C233.731 380.597 233.434 380.411 230.732 381.394C232.225 384.034 235.109 383.179 236.491 380.951ZM286.993 388.925L283.892 388.482V389.368C285.451 389.7 285.668 389.86 286.993 388.925ZM237.82 388.925H237.377L237.82 389.368V388.925ZM323.806 394.334C324.439 394.259 325.281 394.232 325.928 394.334C328.258 395.149 327.979 398.37 327.04 399.105C326.216 399.747 324.36 399.721 323.806 398.162C323.753 397.656 323.766 396.567 323.806 396.013V394.334ZM263.514 410.322C261.622 410.597 258.472 411.044 256.988 412.271C254.76 414.118 253.644 421.468 253.121 424.365C252.279 429.012 252.731 428.033 252.363 431.896L251.553 442.971V457.147C251.553 458.077 251.513 459.353 251.779 460.23C252.102 461.316 252.824 462.113 253.515 462.977C256.031 466.127 258.096 467.278 262.185 467.336C263.491 467.354 265.857 467.424 267.04 467.048C271.359 465.688 273.561 460.257 274.531 456.261C276.387 448.615 275.918 436.454 275.918 428.352C275.918 423.926 276.392 417.162 273.738 413.383C272.183 411.172 266.105 410.189 263.514 410.322ZM260.856 412.78C264.041 411.908 268.568 412.191 270.65 415.142C271.634 416.537 271.514 418.314 271.488 419.935C271.417 424.112 268.878 426.031 264.843 426.133C262.809 426.181 259.558 426.048 258.043 424.52C256.501 422.969 256.483 417.809 257.449 415.948C258.26 414.393 259.367 413.587 260.856 412.78ZM465.964 424.954C460.148 426.385 458.806 430.013 458.876 435.44C458.956 441.288 462.744 445.106 468.622 445.186C471.546 445.221 473.557 445.381 476.149 443.711C477.775 442.661 479.782 440.304 480.53 438.501C481.678 435.746 481.239 429.805 479.135 427.55C476.238 424.44 469.898 424.516 465.964 424.954ZM467.293 428.157C470.558 427.594 473.504 428.463 475.502 431.24C477.443 433.929 476.499 439.09 473.487 440.619C472.251 441.243 470.434 441.234 469.065 441.19C467.914 441.159 466.983 441.097 465.991 440.428C463.244 438.581 460.998 430.381 467.293 428.157ZM54.4179 431.599C52.7168 432.007 51.4764 432.49 50.0057 433.464C46.063 436.087 45.394 438.514 46.2712 442.971C46.6211 444.743 47.0021 446.076 48.1406 447.521C50.4043 450.396 53.4699 451.729 57.0759 452.039C59.22 452.225 63.2115 451.237 64.8196 449.775C68.0535 446.843 69.8121 440.45 67.4244 436.512C64.5094 431.714 59.5479 431.028 54.4179 431.599ZM233.833 451.831L242.693 452.274C243.636 452.265 245.134 452.389 245.785 451.565C246.299 450.914 246.259 449.155 246.361 448.287C246.675 445.695 247.504 440.242 245.603 438.28C244.212 436.835 241.904 436.437 240.035 436.034L229.403 434.421L225.416 433.69C223.746 433.495 220.388 432.702 219.099 433.996C218.376 434.718 218.381 435.825 218.261 436.769C217.849 440.007 217.885 441.093 217.885 444.3H224.087C224.082 447.33 224.321 447.667 222.315 450.059L228.517 450.945C228.176 449.39 227.981 447.946 229.186 446.652C230.426 445.323 233.624 445.186 234.453 447.06C235.109 448.535 234.178 450.369 233.833 451.831ZM398.633 434.244C394.464 435.139 390.194 439.914 390.256 444.3C390.3 447.498 394.61 453.364 397.299 454.892C398.606 455.641 399.816 455.778 401.286 455.813C403.905 455.876 406.509 455.499 408.8 454.143C416.676 449.474 414.28 439.582 407.364 435.405C405.034 433.996 401.278 433.978 398.633 434.244ZM56.1899 435.28C57.7448 434.966 59.5877 434.762 61.0585 435.515C65.5682 437.832 65.7498 446.466 59.2865 448.34C56.8057 449.062 53.0978 448.074 52.0124 445.5C51.658 444.659 51.7466 441.797 51.7599 440.756C51.7732 439.928 51.7466 439.09 52.1188 438.328C52.8674 436.778 54.6749 435.861 56.1899 435.28ZM303.454 435.44H289.208C287.644 435.458 282.607 435.781 281.685 437.017C281.247 437.606 281.021 440.326 280.915 441.199L280.348 453.585H285.664L290.094 453.16C291.237 453.147 293.474 453.271 294.462 452.832C297.31 451.565 295.108 446.63 298.519 446.324C299.126 446.271 300.876 446.803 301.612 446.958L302.498 451.388C305.413 449.744 303.951 447.352 303.454 444.743V435.44ZM126.184 437.083C114.963 437.46 108.725 454.09 120.868 458.733C122.241 459.256 123.827 459.552 125.298 459.552C131.606 459.552 138.34 454.117 137.848 447.401C137.724 445.655 136.01 442.546 134.893 441.203C133.932 440.052 132.824 439.104 131.5 438.386C129.608 437.354 128.275 437.207 126.184 437.083ZM399.071 437.588C409.252 434.798 412.038 448.783 404.387 451.897C400.932 453.302 396.037 450.923 394.929 447.401C393.698 443.494 395.581 439.476 399.071 437.588ZM123.313 441.115C126.033 440.264 130.104 440.796 132.009 443.122C134.388 446.028 133.064 453.523 129.719 455.3C125.821 457.373 120.965 455.1 119.765 450.945C118.777 447.529 120.416 443.082 123.313 441.115ZM343.697 444.3L332.622 443.817L327.306 443.356H318.003C316.678 443.396 313.293 442.803 312.381 443.356C310.029 444.366 313.054 449.642 314.184 450.852C316.643 453.492 322.034 454.507 325.534 454.857C327.483 455.052 331.86 454.578 333.056 456.398C333.601 457.231 333.508 458.826 333.508 459.805L332.546 478.854C332.232 482.017 331.749 481.942 331.736 485.942C334.207 485.942 338.376 486.186 340.511 484.923C343.134 483.372 344.069 475.283 343.258 472.652C342.381 469.808 338.784 466.601 338.983 463.792C339.156 461.333 341.929 457.749 342.815 455.375C343.869 452.549 343.697 447.388 343.697 444.3ZM213.455 444.743H208.582L203.266 444.38L188.647 444.743C187.38 444.743 185.098 444.601 184.155 445.562C182.817 446.927 184.071 452.061 185.103 453.439C186.773 455.663 191.628 457.209 192.133 461.134C193.117 468.767 186.086 469.635 185.989 477.082C185.967 478.783 185.847 481.707 187.185 482.956C188.204 483.909 193.134 484.746 193.475 480.183L192.634 463.792V457.59H199.722C202.185 457.546 202.894 457.169 205.033 455.982C210.163 453.129 211.257 449.851 213.455 444.743ZM238.896 446.59C240.154 446.032 241.368 445.886 242.591 446.59C244.079 447.587 244.327 449.603 242.998 450.493C240.624 452.083 236.017 449.802 238.896 446.59ZM293.571 446.989C293.638 447.684 293.682 449.811 293.571 450.4C292.428 454.015 286.811 449.691 290.231 447.41C290.603 447.162 291.002 447.091 291.431 446.989H293.571ZM261.299 448.477C264.028 448.198 266.592 448.725 268.599 450.732C272.188 454.316 271.643 460.793 266.982 463.225C265.609 463.943 263.713 463.81 262.185 463.792C254.764 463.69 251.477 454.489 257.352 449.806C258.601 448.814 259.797 448.725 261.299 448.477ZM282.221 448.615C286.465 447.609 286.917 451.348 284.308 452.389C281.601 453.466 279.466 450.599 282.221 448.615ZM314.902 505.434C311.583 504.84 309.776 504.995 306.485 504.991L299.84 504.548L287.879 504.105C286.262 504.083 283.156 503.777 281.849 502.807C280.702 501.952 280.476 500.521 280.104 499.232L277.366 489.712C274.766 485.432 269.299 484.905 264.843 484.653C263.593 484.582 259.757 484.998 258.641 485.428C255.296 486.717 249.032 493.504 246.99 496.592C245.736 498.488 244.097 502.585 242.577 503.879C241.027 505.195 238.834 504.982 236.934 504.991L229.846 505.434L218.771 505.877C217.832 505.881 216.321 505.766 215.674 506.586C214.952 507.512 215.413 509.275 215.674 510.307L218.328 518.724C219.24 517.652 219.883 516.704 221.429 516.62C224.716 516.438 226.12 519.92 222.749 520.868C222.071 520.979 220.423 520.939 219.657 520.868V521.825L227.631 521.382H234.719L242.25 520.939H279.019H298.511L306.928 520.053C306.179 519.61 305.647 519.375 305.107 518.626C303.268 516.084 305.975 513.302 308.199 514.125C309.333 514.542 309.98 515.853 310.365 516.952C310.507 517.904 310.467 519.065 310.365 520.053H312.244C313.754 515.206 314.902 510.537 314.902 505.434ZM123.526 490.54C121.107 491.209 119.171 492.303 117.692 494.399C114.622 498.749 114.816 507.569 117.971 511.848C120.513 515.299 123.597 515.725 127.513 516.23C128.598 516.252 129.506 516.5 130.614 516.23C131.907 516.119 133.52 515.282 134.583 514.529C136.204 513.39 137.795 511.685 138.601 509.864C140.373 505.881 139.545 498.355 136.975 494.82C133.644 490.235 128.704 489.867 123.526 490.54ZM401.729 492.015C391.461 492.498 389.449 507.073 393.193 512.96C396.25 517.767 399.382 517.461 404.387 517.395C406.155 517.368 407.236 517.266 408.813 516.349C412.118 514.422 415.48 508.876 415.236 504.991C415.046 501.97 415.05 498.758 413.305 496.14C410.988 492.662 405.588 492.201 401.729 492.015ZM262.628 492.693C263.771 492.636 264.568 492.556 265.729 492.693C272.591 492.884 274.85 501.106 273.291 506.763C272.196 510.732 267.992 514.063 263.957 514.644C258.898 515.37 255.088 513.736 253.604 508.535C253.218 507.179 253.307 504.286 253.325 502.776C253.396 497.473 257.693 493.801 262.628 492.693ZM124.855 495.493C127.805 495.041 131.482 496.091 133.467 498.43C136.333 501.797 136.151 507.529 131.943 509.665C130.388 510.449 128.337 510.333 126.627 510.307C118.631 510.17 120.199 499.653 120.877 498.364C121.701 496.804 123.278 496.042 124.855 495.493ZM399.957 497.73C401.871 497.367 404.37 497.198 406.159 498.102C410.767 500.437 412.339 507.574 407.852 510.874C406.39 511.946 403.936 512.136 402.172 512.061C396.117 511.795 395.904 508.052 395.97 503.219C395.988 501.965 395.979 500.805 396.741 499.732C397.574 498.554 398.673 498.182 399.957 497.73ZM249.781 519.118H245.351C244.859 519.158 244.07 519.154 243.605 519.118C241.718 518.511 241.505 516.518 242.515 515.428C243.592 514.267 248.385 513.386 249.515 516.115C249.834 516.881 249.776 518.312 249.781 519.118ZM270.628 515.189C271.802 514.79 273.308 514.427 274.323 515.446C275.315 516.434 275.404 519.468 274.017 520.168C270.557 521.918 266.203 518.644 270.628 515.189ZM256.997 515.605C258.144 515.198 259.602 514.972 260.696 515.605C261.804 516.482 262.114 518.582 260.696 519.282C257.657 520.837 254.033 517.988 256.997 515.605ZM288.322 520.053C286.638 520.274 285.172 520.576 283.449 520.478C279.311 520.239 280.339 517.014 281.522 515.951C283.209 514.427 287.192 515.242 288.056 517.417C288.353 518.161 288.313 519.255 288.322 520.053ZM295.082 515.508C296.335 515.184 297.62 515.011 298.701 515.951C300.19 517.244 299.924 519.428 298.041 520.164C294.936 521.373 292.3 517.621 295.082 515.508ZM231.241 515.951C232.668 515.623 234.245 515.605 235.339 516.797C236.238 517.776 236.287 520.026 234.971 520.686C231.808 522.272 227.786 518.347 231.241 515.951ZM219.657 520.496H219.214L219.657 520.939V520.496ZM277.69 547.519C277.069 545.906 276.059 543.961 274.447 543.129C273.335 542.553 271.829 542.646 270.602 542.646C265.68 542.637 257.383 541.525 255.097 547.076L262.185 547.519L270.159 547.962L277.69 547.519ZM205.924 553.721C203.762 554.323 202.225 556.064 201.494 558.151L204.595 559.037C204.595 560.702 204.723 563.263 204.24 564.796C203.501 567.139 202.047 567.671 201.666 568.854C200.931 571.175 203.625 572.912 205.481 573.213L206.349 559.923L205.924 553.721ZM279.019 555.05H271.045L263.957 555.493H253.768C253.768 556.578 253.555 558.74 254.476 559.471C255.221 560.06 257.241 559.918 258.198 559.923L264.4 560.366H271.045L275.918 560.773C276.968 560.773 277.991 560.552 279.019 560.366V555.05ZM329.078 571.441C328.364 571.042 327.266 570.51 326.747 569.895C325.649 568.583 325.693 564.526 326.747 563.197C327.678 562.023 329.343 561.845 329.578 560.689C329.977 558.722 326.987 557.287 325.534 556.822C324.391 563.104 324.634 563.883 324.648 570.112C324.648 570.958 324.546 572.721 325.099 573.381C326.428 574.963 328.519 572.579 329.078 571.441ZM117.328 559.245C115.304 559.954 114.484 560.729 112.996 562.244C108.708 566.599 109.297 570.949 112.34 575.871C113.372 577.541 114.998 579.698 116.881 580.416C118.405 580.996 121.072 580.54 122.64 580.15C125.01 579.565 126.631 578.396 128.421 576.695C132.824 572.203 133.329 566.714 128.421 562.156C126.131 559.91 120.518 558.802 117.328 559.245ZM407.045 561.03C403.245 562.47 398.562 567.994 398.912 572.327C399.417 578.591 407.223 583.402 413.247 581.803C418.874 580.31 422.661 571.715 419.972 566.608C417.584 562.076 411.834 560.206 407.045 561.03ZM119.539 562.785C121.931 562.461 125.023 562.652 126.8 564.526C130.756 568.707 126.636 575.627 122.64 576.562C121.426 576.845 120.234 576.487 119.096 576.075C114.963 574.577 115.082 571.676 115.109 567.897C115.118 566.723 115.042 565.451 115.818 564.477C116.704 563.36 118.228 563.081 119.539 562.785ZM407.05 564.729C409.048 564.18 411.724 564.047 413.549 565.203C418.519 568.353 417.549 577.435 410.146 577.634C408.844 577.674 407.418 577.709 406.239 577.076C401.778 574.692 402 567.556 407.05 564.729ZM278.576 568.34L268.387 567.897H260.413L252.882 568.34C252.753 569.939 252.058 572.965 253.573 574.09C254.215 574.564 256.802 574.67 257.755 574.732C261.188 575.251 268.874 575.082 272.374 574.732C273.818 574.497 276.812 574.834 277.756 573.833C278.784 572.739 278.576 569.797 278.576 568.34ZM252.882 581.187C252.882 582.48 252.634 585.183 253.652 586.082C254.569 586.888 257.396 586.919 258.641 587.03C263.15 587.628 267.013 587.291 271.488 587.03C273.096 586.875 275.701 587.127 277.025 586.091C277.49 585.723 277.774 585.24 278.004 584.709C279.568 581.058 274.748 581.218 272.374 581.187H261.299C256.979 581.134 257.914 580.283 252.882 581.187ZM275.918 594.034L253.768 594.477C254.574 596.78 255.615 599.168 257.941 600.32C259.66 601.17 261.697 600.767 263.514 600.696C265.334 600.621 271.328 600.205 272.697 599.341C273.804 598.641 275.563 595.336 275.918 594.034ZM236.491 620.188H241.807L246.68 620.614H253.768L264.4 621.057L271.488 620.614H285.664C286.993 620.614 291.046 620.388 292.162 619.958C293.155 619.577 293.957 618.35 293.19 617.393C292.419 616.432 290.692 616.901 289.651 617.052H286.107L281.677 617.513H273.26L265.729 617.973H259.527L254.211 618.399H243.579L236.491 618.842V620.188ZM238.263 635.676C239.596 637.443 240.411 638.024 242.25 639.211C247.052 642.321 248.558 641.488 253.768 640.739L259.97 639.866L263.514 639.472L273.26 637.908H277.69L284.335 637.448C285.96 637.426 291.485 637.226 292.384 635.981C294.453 633.124 289.81 633.022 288.322 633.018H279.462L274.146 633.443H268.83L254.211 634.347L238.263 635.676ZM294.081 650.295C284.773 650.295 273.636 654.295 264.4 656.271L251.11 658.193L244.465 658.712C245.213 659.899 251.087 663.908 252.456 664.116C253.803 664.32 258.805 662.991 260.413 662.668L282.12 657.591C284.676 656.966 291.392 656.067 292.947 654.18C293.846 653.09 293.965 651.641 294.081 650.295ZM301.169 670.23L297.182 671.005L284.778 674.717L264.4 680.295L256.426 682.049L249.338 683.52L253.475 687.4L258.198 692.823C261.507 690.342 265.808 689.181 269.716 687.874L284.778 683.387L291.423 681.305C292.774 680.924 297.509 679.577 298.453 678.97C300.792 677.464 301.864 672.759 301.169 670.23ZM460.648 714.087L465.964 713.072C467.493 713.298 468.831 714.849 470.394 715.11C471.723 715.331 476.627 713.515 477.916 712.833C482.568 710.374 479.325 707.18 484.57 705.448C487.06 704.536 488.314 704.854 490.772 705.448C491.769 705.776 493.612 706.573 494.542 706.059C495.659 705.435 497.302 700.805 497.807 699.468C498.45 697.784 500.979 693.478 500.554 692.03C500.159 690.696 497.284 689.456 496.088 688.778C493.47 687.29 484.548 682.944 481.912 682.191C474.492 690.705 470.882 692.681 464.83 703.455C462.979 706.75 460.861 710.228 460.648 714.087ZM310.472 687.95L295.853 695.888L277.247 704.23L265.286 708.669C263.031 709.51 261.321 709.714 259.527 711.429C262.349 713.333 262.349 713.471 264.803 715.73C265.644 716.505 266.734 717.759 267.961 717.715C268.958 717.684 271.027 716.377 271.931 715.836L279.462 711.655L299.397 701.315C301.864 699.964 307.805 696.827 309.178 694.577C310.458 692.486 310.472 690.297 310.472 687.95ZM454.446 701.24C450.521 702.414 447.673 707.074 445.83 710.543C441.303 719.061 439.052 729.388 435.397 738.452C433.798 742.421 433.072 743.316 431.211 746.869C430.671 747.901 429.705 749.584 430.046 750.771C430.75 753.203 435.597 753.921 437.329 752.317C439.925 749.921 439.553 743.143 440.408 741.61C441.529 739.612 443.735 739.949 445.569 739.276C447.655 738.505 449.658 735.373 449.29 733.136C448.989 731.31 447.403 729.716 447.589 727.82C447.762 726.025 451.381 720.616 452.409 718.517C454.81 713.604 455.846 706.529 454.446 701.24ZM321.104 704.784C318.162 704.996 317.351 706.011 314.919 707.504L304.589 714.33C297.563 719.066 291.024 723.035 283.449 726.823C280.095 728.502 271.656 732.298 269.273 734.465C271.014 735.554 275.692 738.385 277.672 738.026C278.815 737.818 280.281 736.609 281.251 735.94L288.322 730.978L312.244 715.566C317.489 712.416 321.042 711.601 321.104 704.784ZM504.948 717.188L492.101 713.232C490.746 712.948 488.234 712.363 487.007 713.232C486.475 713.573 484.07 718.1 483.684 718.96C485.479 719.106 486.745 719.434 487.662 721.183C488.154 722.131 488.105 723.239 488.114 724.276V734.022C488.128 734.748 488.194 737.468 489.665 736.604C491.158 735.727 490.648 730.81 490.914 729.149C491.273 726.947 492.084 722.774 493.931 721.44C496.354 719.69 501.883 721.294 504.505 722.061L504.948 717.188ZM328.192 716.302C324.989 717.666 319.23 723.075 316.226 725.516L294.205 742.735C291.294 744.973 284.033 749.411 283.006 752.628L290.98 753.514C292.216 753.518 295.046 753.673 296.065 753.15C297.288 752.521 301.563 745.938 303.069 744.211L310.915 736.237L320.802 725.968C323.075 723.558 327.168 719.38 328.192 716.302ZM472.255 751.742C472.224 750.492 472.787 747.515 472.255 746.563C471.852 745.509 469.331 744.968 468.179 744.374C466.088 743.289 460.883 739.692 459.386 737.991C456.165 734.332 461.335 729.809 463.732 727.164C464.299 726.535 465.601 725.33 465.831 724.577C466.39 722.703 464.303 720.621 462.434 721.042C460.648 721.449 455.16 725.525 454.832 727.377C454.619 728.582 455.616 729.596 455.789 730.921C455.975 732.338 454.863 735.293 454.331 736.68C453.472 738.926 452.453 741.491 450.836 743.285C449.689 744.556 447.593 745.836 446.991 746.926C446.472 747.865 446.322 750.9 446.224 752.185C445.963 753.651 445.21 756.987 446.224 758.059L451.788 760.159C451.788 756.889 451.43 750.625 452.311 747.755C453.078 745.26 453.352 743.896 456.218 743.776C459.669 743.63 467.413 744.968 469.889 747.405C471.276 748.769 471.338 750.129 472.255 751.742ZM336.609 722.504C333.007 724.209 328.732 731.138 326.061 734.465L310.325 753.832C308.048 756.823 305.475 759.884 303.827 763.259C308.682 762.989 311.194 758.892 313.856 755.286L330.854 733.136C333.003 730.411 337.393 726.18 336.609 722.504ZM346.798 728.706C343.931 730.123 339.16 737.317 337.198 740.224L327.74 754.843C323.708 760.686 320.621 763.889 317.56 770.79C319.588 770.697 322.955 770.432 324.568 769.174C326.26 767.849 329.662 761.519 330.929 759.268L341.681 741.553C343.847 737.938 347.497 733.096 346.798 728.706ZM519.567 753.071C520.121 751.52 520.431 750.191 521.676 749.013C522.81 747.936 524.449 747.511 525.061 745.943C525.592 744.569 524.502 740.396 524.055 738.895C523.616 737.441 522.97 735.071 521.286 734.695C519.904 734.385 517.773 735.045 517.764 736.706C517.729 739.311 521.384 743.373 517.764 746.138C515.164 748.135 507.411 749.668 504.505 747.87C502.259 746.479 501.187 744.047 498.746 742.882L501.232 749.084L501.847 756.172C502.233 754.891 502.574 753.367 503.464 752.335C505.214 750.311 509.104 750.08 511.593 749.575C513.21 749.309 516.223 748.641 517.693 749.575C518.934 750.293 519.04 751.852 519.567 753.071ZM358.759 735.794C356.136 738.04 352.858 745.331 350.975 748.641L340.024 767.246C338.327 770.237 336.228 773.218 335.28 776.549C336.662 776.244 340.728 774.791 341.752 773.949C343.143 772.802 345.234 768.164 346.133 766.36L354.882 748.641C356.703 744.986 359.915 739.909 358.759 735.794ZM429.638 738.009H429.195L429.638 738.452V738.009ZM429.195 738.895H428.752L429.195 739.338V738.895ZM428.752 739.338H428.309L428.752 739.781V739.338ZM428.309 740.224H427.866L428.309 740.667V740.224ZM427.866 740.667H427.423L427.866 741.11V740.667ZM384.009 763.259L374.263 759.543L369.39 758.068C365.279 756.964 363.809 757.004 361.492 761.049C360.854 762.17 360.048 763.72 360.584 765.014C361.625 767.53 365.417 768.496 367.618 769.581L374.711 773.989C375.836 774.543 378.614 775.951 379.774 775.194C380.581 774.662 381.019 772.598 381.298 771.676C382.1 769.05 383.757 765.656 384.009 763.259ZM394.198 766.36C390.925 766.551 389.135 767.969 388.439 771.233C390.646 769.967 392.834 768.544 394.198 766.36ZM403.501 772.562H402.615C400.405 774.964 394.779 777.679 393.312 781.865C399.864 781.861 403.346 779.482 403.501 772.562Z" stroke="black" stroke-width="0.442999"/>
</svg>
