<svg width="1512" height="288" viewBox="0 0 1512 288" fill="none" xmlns="http://www.w3.org/2000/svg">
<rect width="1656.3" height="115.503" transform="translate(-99 173.13) rotate(-6)" fill="black"/>
<path d="M-43.542 212.89L-41.9692 227.855C-41.5564 231.781 -42.3096 234.825 -44.2286 236.985C-46.1212 239.142 -49.1901 240.444 -53.4353 240.89C-57.6806 241.336 -60.9663 240.702 -63.2926 238.989C-65.5922 237.272 -66.9484 234.45 -67.3612 230.523L-68.934 215.559L-59.621 214.58L-57.9728 230.261C-57.8334 231.588 -57.4355 232.565 -56.7793 233.194C-56.1259 233.796 -55.2552 234.039 -54.1674 233.925C-53.053 233.808 -52.2388 233.387 -51.7248 232.662C-51.2136 231.911 -51.0277 230.872 -51.1671 229.546L-52.8153 213.865L-43.542 212.89ZM-15.5781 209.549C-12.7922 209.256 -10.3484 209.535 -8.2469 210.388C-6.14538 211.24 -4.45799 212.618 -3.18473 214.523C-1.91147 216.428 -1.12425 218.813 -0.823065 221.679C-0.521883 224.545 -0.795979 227.041 -1.64535 229.169C-2.49473 231.297 -3.85863 232.997 -5.73705 234.267C-7.61547 235.538 -9.94766 236.319 -12.7336 236.612C-15.493 236.902 -17.9368 236.622 -20.0648 235.773C-22.1663 234.921 -23.867 233.544 -25.1668 231.642C-26.4401 229.737 -27.2273 227.351 -27.5285 224.486C-27.8296 221.62 -27.5555 219.123 -26.7062 216.995C-25.8303 214.865 -24.4531 213.164 -22.5747 211.893C-20.6697 210.62 -18.3375 209.839 -15.5781 209.549ZM-14.8461 216.513C-15.7482 216.608 -16.466 216.925 -16.9995 217.464C-17.5093 217.974 -17.86 218.721 -18.0514 219.707C-18.2164 220.69 -18.218 221.951 -18.0562 223.49C-17.8972 225.003 -17.6335 226.236 -17.265 227.19C-16.8727 228.114 -16.3729 228.786 -15.7655 229.205C-15.1344 229.595 -14.3678 229.742 -13.4657 229.647C-12.5635 229.552 -11.8576 229.25 -11.3478 228.741C-10.8143 228.202 -10.465 227.441 -10.3001 226.458C-10.138 225.448 -10.1364 224.187 -10.2953 222.675C-10.4571 221.136 -10.7208 219.903 -11.0865 218.975C-11.4522 218.048 -11.9507 217.389 -12.5818 217C-13.1892 216.581 -13.944 216.419 -14.8461 216.513ZM23.407 212.734L10.91 214.048L11.2948 217.709L21.4038 216.647L22.1192 223.453L12.0101 224.515L12.9555 233.51L3.68223 234.484L0.921391 208.217L22.6917 205.929L23.407 212.734ZM51.6264 202.887C55.0492 202.528 57.7568 203.021 59.7493 204.368C61.7391 205.688 62.8664 207.608 63.1313 210.128C63.4353 213.021 62.7619 215.291 61.111 216.94C59.4867 218.586 56.9631 219.589 53.5404 219.949L52.6752 220.523L48.2973 220.983L49.2134 229.699L40.1391 230.653L37.3783 204.385L51.6264 202.887ZM51.2392 214.517C52.2209 214.414 52.9324 214.165 53.3738 213.77C53.8389 213.345 54.024 212.682 53.9292 211.78C53.8372 210.904 53.5196 210.307 52.9764 209.989C52.4598 209.667 51.7106 209.558 50.7289 209.661L47.1469 210.038L47.6573 214.893L51.2392 214.517ZM56.9365 215.89L66.4863 227.883L56.417 228.942L49.079 218.084L56.9365 215.89ZM77.6629 199.749C80.4488 199.456 82.8926 199.735 84.9941 200.588C87.0956 201.44 88.783 202.818 90.0562 204.723C91.3295 206.628 92.1167 209.013 92.4179 211.879C92.7191 214.745 92.445 217.241 91.5956 219.369C90.7462 221.497 89.3823 223.197 87.5039 224.467C85.6255 225.738 83.2933 226.519 80.5074 226.812C77.7479 227.102 75.3042 226.822 73.1761 225.973C71.0746 225.121 69.374 223.744 68.0742 221.842C66.8009 219.937 66.0137 217.551 65.7125 214.686C65.4113 211.82 65.6854 209.323 66.5348 207.195C67.4107 205.065 68.7879 203.364 70.6663 202.093C72.5712 200.82 74.9034 200.039 77.6629 199.749ZM78.3949 206.713C77.4928 206.808 76.775 207.125 76.2414 207.664C75.7316 208.174 75.381 208.921 75.1896 209.907C75.0246 210.89 75.023 212.151 75.1848 213.69C75.3437 215.203 75.6075 216.436 75.976 217.39C76.3682 218.314 76.8681 218.986 77.4754 219.405C78.1066 219.795 78.8732 219.942 79.7753 219.847C80.6774 219.752 81.3834 219.45 81.8932 218.941C82.4267 218.402 82.7759 217.641 82.9409 216.658C83.103 215.648 83.1046 214.387 82.9457 212.875C82.7839 211.336 82.5202 210.103 82.1544 209.175C81.7887 208.248 81.2903 207.589 80.6592 207.2C80.0518 206.781 79.297 206.619 78.3949 206.713ZM96.9232 224.684L94.1624 198.417L109.207 196.836C112.526 196.513 115.056 196.851 116.797 197.848C118.536 198.819 119.528 200.472 119.773 202.807C119.938 204.372 119.6 205.749 118.759 206.938C117.918 208.126 116.491 208.973 114.479 209.48L114.483 209.52C116.79 209.519 118.533 210.019 119.711 211.022C120.89 212.025 121.568 213.376 121.747 215.074C121.989 217.382 121.389 219.202 119.946 220.534C118.527 221.837 116.213 222.657 113.002 222.994L96.9232 224.684ZM105.163 217.702L109.899 217.204C110.721 217.118 111.315 216.894 111.679 216.534C112.068 216.145 112.228 215.631 112.161 214.995C112.097 214.384 111.836 213.942 111.378 213.669C110.947 213.392 110.32 213.297 109.497 213.383L104.761 213.881L105.163 217.702ZM104.108 207.673L108.248 207.238C109.84 207.07 110.569 206.35 110.435 205.076C110.301 203.803 109.438 203.249 107.846 203.417L103.707 203.852L104.108 207.673ZM134.68 193.756C137.466 193.463 139.91 193.743 142.011 194.595C144.113 195.447 145.8 196.825 147.074 198.73C148.347 200.635 149.134 203.021 149.435 205.886C149.736 208.752 149.462 211.249 148.613 213.377C147.764 215.505 146.4 217.204 144.521 218.474C142.643 219.745 140.311 220.527 137.525 220.819C134.765 221.109 132.321 220.83 130.193 219.98C128.092 219.128 126.391 217.751 125.091 215.849C123.818 213.944 123.031 211.559 122.73 208.693C122.429 205.827 122.703 203.331 123.552 201.203C124.428 199.072 125.805 197.371 127.684 196.101C129.589 194.827 131.921 194.046 134.68 193.756ZM135.412 200.721C134.51 200.815 133.792 201.132 133.259 201.671C132.749 202.181 132.398 202.929 132.207 203.915C132.042 204.898 132.04 206.159 132.202 207.697C132.361 209.21 132.625 210.443 132.993 211.397C133.386 212.321 133.885 212.993 134.493 213.412C135.124 213.802 135.89 213.949 136.793 213.854C137.695 213.76 138.401 213.457 138.91 212.948C139.444 212.409 139.793 211.648 139.958 210.665C140.12 209.655 140.122 208.394 139.963 206.882C139.801 205.343 139.537 204.11 139.172 203.182C138.806 202.255 138.308 201.597 137.676 201.207C137.069 200.788 136.314 200.626 135.412 200.721ZM174.491 189.974L175.207 196.78L167.008 197.641L169.053 217.103L159.78 218.078L157.735 198.616L149.496 199.482L148.781 192.676L174.491 189.974ZM186.532 188.708L189.293 214.976L180.02 215.951L177.259 189.683L186.532 188.708ZM217.104 203.925C216.841 206.018 216.192 207.749 215.155 209.119C214.145 210.486 212.847 211.534 211.261 212.265C209.672 212.968 207.869 213.426 205.852 213.638C203.093 213.928 200.649 213.648 198.521 212.799C196.419 211.947 194.719 210.569 193.419 208.667C192.146 206.762 191.358 204.377 191.057 201.512C190.756 198.646 191.03 196.149 191.88 194.021C192.755 191.89 194.133 190.19 196.011 188.919C197.916 187.646 200.248 186.864 203.008 186.574C204.945 186.371 206.778 186.46 208.508 186.841C210.236 187.196 211.731 187.897 212.995 188.945C214.285 189.99 215.215 191.434 215.784 193.279L208.15 197.22C207.757 195.518 207.202 194.449 206.486 194.015C205.796 193.578 204.96 193.411 203.978 193.514C203.076 193.609 202.332 193.929 201.745 194.473C201.183 194.988 200.794 195.753 200.578 196.769C200.387 197.754 200.371 199.004 200.53 200.516C200.686 202.002 200.948 203.222 201.317 204.175C201.712 205.127 202.253 205.807 202.94 206.218C203.624 206.602 204.497 206.738 205.558 206.627C206.513 206.527 207.267 206.166 207.818 205.544C208.367 204.896 208.656 203.941 208.684 202.677L217.104 203.925ZM228.907 183.852C231.428 183.587 233.717 183.668 235.774 184.096C237.854 184.494 239.73 185.236 241.4 186.322L238.286 192.685C236.947 191.94 235.56 191.375 234.124 190.989C232.715 190.601 231.215 190.49 229.623 190.658C228.933 190.73 228.381 190.842 227.968 190.993C227.581 191.141 227.304 191.317 227.138 191.522C226.999 191.725 226.941 191.946 226.966 192.184C227 192.503 227.264 192.716 227.758 192.825C228.279 192.932 228.921 193.039 229.683 193.146L233.393 193.601C236.137 193.93 238.248 194.62 239.727 195.672C241.232 196.721 242.096 198.307 242.319 200.429C242.542 202.552 242.209 204.357 241.319 205.846C240.426 207.308 239.126 208.464 237.418 209.314C235.737 210.161 233.782 210.702 231.553 210.937C229.881 211.112 228.194 211.142 226.492 211.026C224.787 210.883 223.188 210.595 221.693 210.162C220.196 209.702 218.886 209.102 217.762 208.362L220.784 201.888C221.617 202.417 222.604 202.877 223.745 203.267C224.883 203.63 226.051 203.896 227.249 204.065C228.448 204.235 229.551 204.266 230.559 204.16C231.196 204.093 231.694 203.987 232.055 203.842C232.415 203.697 232.653 203.538 232.769 203.365C232.909 203.162 232.966 202.941 232.941 202.703C232.902 202.331 232.713 202.069 232.375 201.917C232.064 201.762 231.501 201.633 230.685 201.531L226.613 201.074C225.173 200.903 223.789 200.62 222.46 200.223C221.13 199.826 220.015 199.165 219.113 198.241C218.208 197.29 217.663 195.939 217.479 194.187C217.29 192.383 217.601 190.754 218.414 189.301C219.254 187.844 220.55 186.649 222.303 185.713C224.079 184.749 226.281 184.128 228.907 183.852Z" fill="#F53531"/>
<path d="M308.668 168.254L313.273 185.026L330.636 186.043L313.864 190.648L312.847 208.011L308.242 191.239L290.879 190.222L307.651 185.617L308.668 168.254Z" fill="#F53531"/>
<path d="M403.912 165.861L405.485 180.825C405.897 184.752 405.144 187.796 403.225 189.956C401.333 192.113 398.264 193.415 394.018 193.861C389.773 194.307 386.487 193.673 384.161 191.959C381.861 190.243 380.505 187.421 380.093 183.494L378.52 168.53L387.833 167.551L389.481 183.232C389.62 184.558 390.018 185.536 390.674 186.164C391.328 186.766 392.198 187.01 393.286 186.896C394.401 186.779 395.215 186.358 395.729 185.633C396.24 184.882 396.426 183.843 396.287 182.516L394.638 166.835L403.912 165.861ZM431.876 162.519C434.662 162.226 437.105 162.506 439.207 163.358C441.308 164.21 442.996 165.589 444.269 167.494C445.542 169.399 446.329 171.784 446.631 174.65C446.932 177.515 446.658 180.012 445.808 182.14C444.959 184.268 443.595 185.967 441.717 187.238C439.838 188.508 437.506 189.29 434.72 189.583C431.961 189.873 429.517 189.593 427.389 188.744C425.287 187.892 423.587 186.514 422.287 184.612C421.014 182.707 420.226 180.322 419.925 177.457C419.624 174.591 419.898 172.094 420.748 169.966C421.623 167.835 423.001 166.135 424.879 164.864C426.784 163.591 429.116 162.809 431.876 162.519ZM432.608 169.484C431.705 169.579 430.988 169.896 430.454 170.435C429.944 170.944 429.594 171.692 429.402 172.678C429.237 173.661 429.236 174.922 429.397 176.461C429.556 177.973 429.82 179.206 430.189 180.16C430.581 181.085 431.081 181.757 431.688 182.176C432.319 182.565 433.086 182.713 433.988 182.618C434.89 182.523 435.596 182.221 436.106 181.711C436.639 181.172 436.989 180.411 437.154 179.428C437.316 178.419 437.317 177.158 437.158 175.645C436.997 174.106 436.733 172.873 436.367 171.946C436.001 171.019 435.503 170.36 434.872 169.97C434.264 169.551 433.51 169.389 432.608 169.484ZM470.861 165.705L458.364 167.018L458.748 170.68L468.858 169.618L469.573 176.423L459.464 177.486L460.409 186.48L451.136 187.455L448.375 161.187L470.145 158.899L470.861 165.705ZM499.08 155.858C502.503 155.498 505.21 155.992 507.203 157.338C509.193 158.658 510.32 160.578 510.585 163.099C510.889 165.991 510.216 168.262 508.565 169.911C506.94 171.557 504.417 172.56 500.994 172.92L500.129 173.493L495.751 173.953L496.667 182.67L487.593 183.623L484.832 157.356L499.08 155.858ZM498.693 167.488C499.675 167.385 500.386 167.135 500.827 166.74C501.293 166.316 501.478 165.652 501.383 164.75C501.291 163.875 500.973 163.278 500.43 162.959C499.913 162.638 499.164 162.529 498.183 162.632L494.601 163.009L495.111 167.864L498.693 167.488ZM504.39 168.861L513.94 180.854L503.871 181.912L496.533 171.055L504.39 168.861ZM525.117 152.719C527.902 152.426 530.346 152.706 532.448 153.558C534.549 154.41 536.237 155.789 537.51 157.694C538.783 159.599 539.57 161.984 539.872 164.85C540.173 167.715 539.899 170.212 539.049 172.34C538.2 174.468 536.836 176.167 534.958 177.438C533.079 178.708 530.747 179.49 527.961 179.783C525.202 180.073 522.758 179.793 520.63 178.944C518.528 178.092 516.828 176.714 515.528 174.812C514.255 172.907 513.467 170.522 513.166 167.657C512.865 164.791 513.139 162.294 513.988 160.166C514.864 158.035 516.242 156.335 518.12 155.064C520.025 153.791 522.357 153.009 525.117 152.719ZM525.849 159.684C524.946 159.779 524.229 160.096 523.695 160.635C523.185 161.144 522.835 161.892 522.643 162.878C522.478 163.861 522.477 165.122 522.638 166.661C522.797 168.173 523.061 169.406 523.43 170.36C523.822 171.285 524.322 171.957 524.929 172.376C525.56 172.765 526.327 172.913 527.229 172.818C528.131 172.723 528.837 172.421 529.347 171.911C529.88 171.372 530.23 170.611 530.395 169.628C530.557 168.619 530.558 167.358 530.399 165.845C530.238 164.306 529.974 163.073 529.608 162.146C529.242 161.219 528.744 160.56 528.113 160.17C527.505 159.751 526.751 159.589 525.849 159.684ZM544.377 177.655L541.616 151.387L556.66 149.806C559.98 149.484 562.51 149.822 564.251 150.819C565.99 151.79 566.981 153.443 567.227 155.778C567.391 157.343 567.053 158.72 566.212 159.908C565.372 161.096 563.945 161.944 561.933 162.45L561.937 162.49C564.244 162.489 565.986 162.99 567.165 163.993C568.343 164.996 569.022 166.346 569.2 168.044C569.443 170.353 568.843 172.173 567.4 173.505C565.981 174.808 563.666 175.628 560.456 175.965L544.377 177.655ZM552.616 170.673L557.352 170.175C558.175 170.088 558.768 169.865 559.133 169.505C559.521 169.115 559.682 168.602 559.615 167.965C559.551 167.355 559.29 166.913 558.832 166.639C558.4 166.363 557.773 166.268 556.951 166.354L552.215 166.852L552.616 170.673ZM551.562 160.643L555.701 160.208C557.293 160.041 558.022 159.32 557.888 158.047C557.755 156.773 556.892 156.22 555.3 156.387L551.161 156.823L551.562 160.643ZM582.134 146.726C584.92 146.434 587.364 146.713 589.465 147.565C591.567 148.418 593.254 149.796 594.527 151.701C595.8 153.606 596.588 155.991 596.889 158.857C597.19 161.722 596.916 164.219 596.067 166.347C595.217 168.475 593.853 170.175 591.975 171.445C590.096 172.716 587.764 173.497 584.978 173.79C582.219 174.08 579.775 173.8 577.647 172.951C575.546 172.099 573.845 170.722 572.545 168.82C571.272 166.915 570.485 164.529 570.183 161.664C569.882 158.798 570.156 156.301 571.006 154.173C571.882 152.043 573.259 150.342 575.137 149.071C577.042 147.798 579.374 147.016 582.134 146.726ZM582.866 153.691C581.964 153.786 581.246 154.103 580.712 154.642C580.203 155.152 579.852 155.899 579.661 156.885C579.496 157.868 579.494 159.129 579.656 160.668C579.815 162.181 580.078 163.414 580.447 164.367C580.839 165.292 581.339 165.964 581.946 166.383C582.578 166.773 583.344 166.92 584.246 166.825C585.148 166.73 585.854 166.428 586.364 165.918C586.898 165.38 587.247 164.619 587.412 163.635C587.574 162.626 587.576 161.365 587.417 159.852C587.255 158.314 586.991 157.08 586.625 156.153C586.26 155.226 585.761 154.567 585.13 154.178C584.523 153.759 583.768 153.597 582.866 153.691ZM621.945 142.945L622.66 149.75L614.462 150.612L616.507 170.074L607.234 171.049L605.188 151.587L596.95 152.452L596.234 145.647L621.945 142.945ZM633.986 141.679L636.747 167.947L627.474 168.921L624.713 142.654L633.986 141.679ZM664.558 156.895C664.295 158.988 663.645 160.72 662.609 162.09C661.599 163.457 660.301 164.505 658.714 165.235C657.125 165.939 655.322 166.397 653.306 166.609C650.546 166.899 648.103 166.619 645.975 165.77C643.873 164.917 642.172 163.54 640.873 161.638C639.599 159.733 638.812 157.348 638.511 154.482C638.21 151.617 638.484 149.12 639.333 146.992C640.209 144.861 641.586 143.16 643.465 141.89C645.37 140.617 647.702 139.835 650.461 139.545C652.398 139.341 654.232 139.43 655.962 139.812C657.689 140.167 659.185 140.868 660.448 141.916C661.738 142.96 662.668 144.405 663.238 146.25L655.604 150.191C655.211 148.489 654.656 147.42 653.939 146.986C653.25 146.549 652.414 146.382 651.432 146.485C650.53 146.58 649.786 146.899 649.199 147.444C648.636 147.959 648.247 148.724 648.032 149.739C647.841 150.725 647.824 151.974 647.983 153.487C648.139 154.973 648.402 156.192 648.77 157.146C649.165 158.097 649.706 158.778 650.393 159.189C651.077 159.573 651.95 159.709 653.012 159.598C653.967 159.497 654.72 159.136 655.272 158.515C655.821 157.867 656.109 156.911 656.137 155.648L664.558 156.895ZM676.361 136.823C678.882 136.558 681.17 136.639 683.227 137.067C685.308 137.465 687.183 138.207 688.853 139.292L685.74 145.655C684.401 144.911 683.013 144.346 681.578 143.96C680.169 143.572 678.668 143.461 677.076 143.628C676.387 143.701 675.835 143.813 675.422 143.963C675.035 144.111 674.758 144.288 674.592 144.493C674.452 144.696 674.395 144.916 674.42 145.155C674.454 145.473 674.717 145.687 675.212 145.796C675.733 145.902 676.374 146.009 677.137 146.117L680.846 146.572C683.59 146.901 685.702 147.591 687.18 148.643C688.685 149.692 689.55 151.277 689.773 153.4C689.996 155.523 689.662 157.328 688.773 158.817C687.88 160.279 686.58 161.435 684.872 162.285C683.19 163.132 681.235 163.673 679.007 163.907C677.335 164.083 675.648 164.113 673.946 163.997C672.241 163.854 670.641 163.566 669.147 163.133C667.65 162.673 666.34 162.073 665.216 161.333L668.237 154.859C669.071 155.388 670.058 155.848 671.199 156.237C672.337 156.601 673.505 156.867 674.703 157.036C675.901 157.205 677.004 157.237 678.013 157.131C678.649 157.064 679.148 156.958 679.508 156.813C679.869 156.668 680.107 156.508 680.223 156.335C680.362 156.133 680.42 155.912 680.395 155.673C680.355 155.302 680.167 155.04 679.829 154.888C679.518 154.733 678.954 154.604 678.139 154.502L674.067 154.045C672.627 153.874 671.243 153.59 669.913 153.194C668.584 152.797 667.468 152.136 666.566 151.212C665.661 150.26 665.117 148.909 664.933 147.158C664.743 145.354 665.055 143.725 665.868 142.271C666.707 140.815 668.004 139.619 669.756 138.684C671.533 137.719 673.734 137.099 676.361 136.823Z" fill="#F53531"/>
<path d="M756.122 121.225L760.727 137.996L778.09 139.014L761.318 143.619L760.301 160.982L755.696 144.21L738.333 143.192L755.105 138.587L756.122 121.225Z" fill="#F53531"/>
<path d="M858.325 115.336L850.995 147.942L837.78 149.331L823.832 118.962L835.425 117.743L841.577 134.509L843.75 140.503L844.545 134.294L847.161 116.509L858.325 115.336ZM871.637 130.723C871.561 129.991 871.325 129.437 870.932 129.061C870.571 128.68 870.04 128.527 869.34 128.601C868.672 128.671 868.136 128.92 867.731 129.349C867.325 129.777 867.151 130.567 867.208 131.719L857.812 131.356C857.757 128.693 858.682 126.473 860.585 124.697C862.489 122.922 865.413 121.827 869.356 121.412C872.124 121.121 874.438 121.264 876.299 121.84C878.192 122.413 879.64 123.338 880.643 124.615C881.677 125.889 882.289 127.433 882.48 129.246L883.257 136.64C883.394 137.944 884.083 138.531 885.323 138.401C885.673 138.364 885.938 138.288 886.119 138.173L886.234 143.852C885.117 144.548 883.732 144.984 882.078 145.157C880.583 145.314 879.226 145.248 878.005 144.958C876.814 144.633 875.839 144.077 875.08 143.288C874.351 142.464 873.914 141.369 873.77 140.001L873.72 139.524L874.77 139.414C874.865 140.626 874.583 141.765 873.923 142.831C873.292 143.862 872.386 144.729 871.206 145.432C870.025 146.135 868.64 146.57 867.05 146.737C865.364 146.914 863.906 146.81 862.676 146.425C861.477 146.036 860.526 145.397 859.821 144.506C859.117 143.615 858.696 142.518 858.559 141.214C858.375 139.465 858.783 137.991 859.782 136.792C860.779 135.562 862.304 134.63 864.36 133.996L872.481 131.406L872.839 135.275L870.328 136.166C869.677 136.396 869.228 136.716 868.982 137.128C868.733 137.508 868.637 137.968 868.693 138.509C868.747 139.018 868.949 139.414 869.301 139.699C869.652 139.984 870.114 140.096 870.687 140.036C870.941 140.009 871.175 139.936 871.387 139.817C871.632 139.695 871.823 139.53 871.962 139.323C872.133 139.112 872.253 138.874 872.322 138.61C872.387 138.314 872.401 137.99 872.364 137.641L871.637 130.723ZM888.32 144.019L885.813 120.165L895.689 119.127L897.229 129.191L896.006 128.113C896.022 126.118 896.337 124.381 896.954 122.901C897.57 121.421 898.476 120.249 899.671 119.383C900.895 118.483 902.397 117.939 904.178 117.752C905.769 117.585 907.154 117.761 908.334 118.28C909.511 118.767 910.449 119.585 911.148 120.734C911.876 121.847 912.33 123.262 912.511 124.98L914.226 141.296L903.253 142.449L901.824 128.853C901.717 127.835 901.502 127.166 901.179 126.846C900.852 126.495 900.403 126.349 899.831 126.409C899.322 126.463 898.906 126.635 898.583 126.926C898.288 127.182 898.089 127.589 897.987 128.146C897.885 128.704 897.879 129.412 897.969 130.271L899.293 142.866L888.32 144.019ZM928.928 140.233C926.606 140.477 924.331 140.395 922.101 139.986C919.903 139.574 917.942 138.815 916.218 137.71L919.534 131.622C920.473 132.295 921.674 132.86 923.136 133.317C924.596 133.743 926.026 133.882 927.425 133.735C927.966 133.678 928.436 133.564 928.836 133.393C929.268 133.219 929.467 132.973 929.434 132.655C929.407 132.401 929.26 132.223 928.992 132.123C928.756 132.019 928.234 131.945 927.425 131.902L925.673 131.748C922.136 131.445 919.586 130.748 918.025 129.658C916.463 128.568 915.572 126.973 915.351 124.874C915.214 123.57 915.494 122.255 916.191 120.927C916.916 119.565 918.157 118.373 919.915 117.352C921.673 116.331 924.062 115.662 927.084 115.345C929.565 115.084 931.825 115.168 933.863 115.597C935.899 115.994 937.594 116.668 938.948 117.619L935.75 123.454C934.786 122.848 933.583 122.411 932.14 122.145C930.725 121.843 929.446 121.753 928.301 121.873C927.792 121.927 927.382 122.002 927.07 122.099C926.759 122.196 926.53 122.317 926.385 122.46C926.268 122.569 926.217 122.703 926.234 122.862C926.257 123.085 926.438 123.275 926.776 123.432C927.114 123.59 927.753 123.699 928.692 123.761L932.14 123.978C934.759 124.121 936.723 124.75 938.03 125.867C939.369 126.98 940.134 128.444 940.324 130.257C940.488 131.815 940.211 133.307 939.492 134.733C938.803 136.124 937.593 137.313 935.864 138.298C934.166 139.281 931.854 139.926 928.928 140.233Z" fill="#F53531"/>
<path d="M1005.67 94.9964L1010.27 111.768L1027.63 112.786L1010.86 117.391L1009.84 134.753L1005.24 117.982L987.877 116.964L1004.65 112.359L1005.67 94.9964Z" fill="#F53531"/>
<path d="M1100.91 92.6034L1102.48 107.568C1102.89 111.495 1102.14 114.538 1100.22 116.698C1098.33 118.855 1095.26 120.157 1091.02 120.603C1086.77 121.05 1083.48 120.416 1081.16 118.702C1078.86 116.985 1077.5 114.164 1077.09 110.237L1075.52 95.2722L1084.83 94.2933L1086.48 109.974C1086.62 111.301 1087.02 112.279 1087.67 112.907C1088.33 113.509 1089.2 113.753 1090.28 113.638C1091.4 113.521 1092.21 113.1 1092.73 112.376C1093.24 111.625 1093.42 110.586 1093.28 109.259L1091.64 93.578L1100.91 92.6034ZM1128.87 89.2618C1131.66 88.969 1134.1 89.2487 1136.2 90.1009C1138.31 90.953 1139.99 92.3316 1141.27 94.2365C1142.54 96.1415 1143.33 98.5267 1143.63 101.392C1143.93 104.258 1143.66 106.755 1142.81 108.883C1141.96 111.011 1140.59 112.71 1138.71 113.981C1136.84 115.251 1134.5 116.033 1131.72 116.325C1128.96 116.615 1126.51 116.336 1124.39 115.486C1122.28 114.634 1120.58 113.257 1119.28 111.355C1118.01 109.45 1117.22 107.065 1116.92 104.199C1116.62 101.334 1116.9 98.8368 1117.74 96.7087C1118.62 94.5779 1120 92.8772 1121.88 91.6068C1123.78 90.3335 1126.11 89.5519 1128.87 89.2618ZM1129.61 96.2267C1128.7 96.3216 1127.99 96.6384 1127.45 97.1774C1126.94 97.687 1126.59 98.4347 1126.4 99.4206C1126.23 100.404 1126.23 101.665 1126.39 103.204C1126.55 104.716 1126.82 105.949 1127.19 106.903C1127.58 107.827 1128.08 108.499 1128.69 108.918C1129.32 109.308 1130.08 109.455 1130.99 109.361C1131.89 109.266 1132.59 108.964 1133.1 108.454C1133.64 107.915 1133.99 107.154 1134.15 106.171C1134.31 105.161 1134.31 103.9 1134.16 102.388C1133.99 100.849 1133.73 99.6159 1133.36 98.6886C1133 97.7613 1132.5 97.1028 1131.87 96.7131C1131.26 96.294 1130.51 96.1319 1129.61 96.2267ZM1167.86 92.4476L1155.36 93.7611L1155.75 97.4226L1165.85 96.3601L1166.57 103.166L1156.46 104.228L1157.41 113.223L1148.13 114.198L1145.37 87.9301L1167.14 85.6419L1167.86 92.4476ZM1196.08 82.6007C1199.5 82.241 1202.21 82.7344 1204.2 84.0809C1206.19 85.4008 1207.32 87.3211 1207.58 89.8417C1207.89 92.7338 1207.21 95.0043 1205.56 96.6533C1203.94 98.2994 1201.41 99.3024 1197.99 99.6621L1197.13 100.236L1192.75 100.696L1193.66 109.412L1184.59 110.366L1181.83 84.0983L1196.08 82.6007ZM1195.69 94.2303C1196.67 94.1271 1197.38 93.878 1197.82 93.4828C1198.29 93.0584 1198.48 92.3951 1198.38 91.493C1198.29 90.6174 1197.97 90.0204 1197.43 89.7019C1196.91 89.3806 1196.16 89.2716 1195.18 89.3748L1191.6 89.7512L1192.11 94.6068L1195.69 94.2303ZM1201.39 95.6032L1210.94 107.597L1200.87 108.655L1193.53 97.7972L1201.39 95.6032ZM1222.11 79.4618C1224.9 79.169 1227.34 79.4487 1229.45 80.3008C1231.55 81.153 1233.23 82.5316 1234.51 84.4365C1235.78 86.3415 1236.57 88.7267 1236.87 91.5923C1237.17 94.4578 1236.9 96.9546 1236.05 99.0827C1235.2 101.211 1233.83 102.91 1231.96 104.18C1230.08 105.451 1227.74 106.233 1224.96 106.525C1222.2 106.815 1219.76 106.536 1217.63 105.686C1215.53 104.834 1213.83 103.457 1212.53 101.555C1211.25 99.6499 1210.46 97.2647 1210.16 94.3991C1209.86 91.5336 1210.14 89.0368 1210.99 86.9087C1211.86 84.7779 1213.24 83.0772 1215.12 81.8068C1217.02 80.5335 1219.35 79.7518 1222.11 79.4618ZM1222.85 86.4267C1221.94 86.5215 1221.23 86.8384 1220.69 87.3774C1220.18 87.887 1219.83 88.6347 1219.64 89.6206C1219.48 90.6037 1219.47 91.8646 1219.64 93.4036C1219.79 94.9159 1220.06 96.149 1220.43 97.1029C1220.82 98.0274 1221.32 98.6991 1221.93 99.1182C1222.56 99.5079 1223.32 99.6553 1224.23 99.5605C1225.13 99.4657 1225.83 99.1635 1226.34 98.6539C1226.88 98.1149 1227.23 97.3539 1227.39 96.3708C1227.55 95.3612 1227.56 94.1002 1227.4 92.5879C1227.24 91.0489 1226.97 89.8158 1226.61 88.8885C1226.24 87.9612 1225.74 87.3027 1225.11 86.913C1224.5 86.494 1223.75 86.3319 1222.85 86.4267ZM1241.37 104.398L1238.61 78.13L1253.66 76.5488C1256.98 76.2268 1259.51 76.5644 1261.25 77.5618C1262.99 78.5326 1263.98 80.1854 1264.22 82.5203C1264.39 84.0858 1264.05 85.4626 1263.21 86.6508C1262.37 87.8391 1260.94 88.6865 1258.93 89.1931L1258.93 89.2329C1261.24 89.2319 1262.98 89.7328 1264.16 90.7356C1265.34 91.7384 1266.02 93.0889 1266.2 94.787C1266.44 97.0954 1265.84 98.9155 1264.4 100.248C1262.98 101.55 1260.66 102.37 1257.45 102.708L1241.37 104.398ZM1249.61 97.4153L1254.35 96.9175C1255.17 96.8311 1255.77 96.6077 1256.13 96.2475C1256.52 95.858 1256.68 95.3448 1256.61 94.708C1256.55 94.0977 1256.29 93.6557 1255.83 93.382C1255.4 93.1054 1254.77 93.0103 1253.95 93.0968L1249.21 93.5946L1249.61 97.4153ZM1248.56 87.3859L1252.7 86.9508C1254.29 86.7835 1255.02 86.063 1254.89 84.7895C1254.75 83.5159 1253.89 82.9628 1252.3 83.1301L1248.16 83.5651L1248.56 87.3859ZM1279.13 73.4691C1281.92 73.1762 1284.36 73.4559 1286.46 74.3081C1288.56 75.1602 1290.25 76.5388 1291.52 78.4438C1292.8 80.3487 1293.59 82.734 1293.89 85.5995C1294.19 88.4651 1293.91 90.9619 1293.06 93.0899C1292.21 95.218 1290.85 96.9172 1288.97 98.1877C1287.09 99.4582 1284.76 100.24 1281.98 100.533C1279.22 100.823 1276.77 100.543 1274.64 99.6936C1272.54 98.8415 1270.84 97.4643 1269.54 95.5621C1268.27 93.6572 1267.48 91.2719 1267.18 88.4064C1266.88 85.5408 1267.15 83.044 1268 80.916C1268.88 78.7851 1270.26 77.0845 1272.13 75.814C1274.04 74.5407 1276.37 73.7591 1279.13 73.4691ZM1279.86 80.434C1278.96 80.5288 1278.24 80.8457 1277.71 81.3846C1277.2 81.8942 1276.85 82.642 1276.66 83.6278C1276.49 84.6109 1276.49 85.8719 1276.65 87.4108C1276.81 88.9232 1277.08 90.1563 1277.44 91.1101C1277.84 92.0346 1278.34 92.7064 1278.94 93.1254C1279.58 93.5151 1280.34 93.6626 1281.24 93.5678C1282.15 93.4729 1282.85 93.1707 1283.36 92.6611C1283.9 92.1222 1284.24 91.3611 1284.41 90.3781C1284.57 89.3685 1284.57 88.1075 1284.41 86.5951C1284.25 85.0562 1283.99 83.8231 1283.62 82.8958C1283.26 81.9685 1282.76 81.31 1282.13 80.9203C1281.52 80.5012 1280.77 80.3391 1279.86 80.434ZM1318.94 69.6871L1319.66 76.4928L1311.46 77.3546L1313.5 96.8165L1304.23 97.7911L1302.19 78.3292L1293.95 79.1951L1293.23 72.3894L1318.94 69.6871ZM1330.98 68.4216L1333.74 94.6892L1324.47 95.6638L1321.71 69.3962L1330.98 68.4216ZM1361.56 83.6378C1361.29 85.7311 1360.64 87.4626 1359.61 88.8323C1358.6 90.1993 1357.3 91.2478 1355.71 91.9779C1354.12 92.6815 1352.32 93.1392 1350.3 93.3511C1347.54 93.6412 1345.1 93.3615 1342.97 92.5121C1340.87 91.66 1339.17 90.2828 1337.87 88.3806C1336.6 86.4757 1335.81 84.0904 1335.51 81.2249C1335.21 78.3593 1335.48 75.8625 1336.33 73.7345C1337.21 71.6036 1338.58 69.903 1340.46 68.6325C1342.37 67.3592 1344.7 66.5776 1347.46 66.2876C1349.4 66.084 1351.23 66.1729 1352.96 66.5544C1354.69 66.9094 1356.18 67.6107 1357.45 68.6582C1358.74 69.7029 1359.67 71.1477 1360.24 72.9925L1352.6 76.9335C1352.21 75.2311 1351.65 74.1628 1350.94 73.7284C1350.25 73.2912 1349.41 73.1242 1348.43 73.2274C1347.53 73.3222 1346.78 73.6418 1346.2 74.1864C1345.63 74.7016 1345.24 75.4668 1345.03 76.4819C1344.84 77.4678 1344.82 78.7169 1344.98 80.2293C1345.14 81.7151 1345.4 82.935 1345.77 83.8888C1346.16 84.8398 1346.7 85.5207 1347.39 85.9314C1348.07 86.3155 1348.95 86.4518 1350.01 86.3402C1350.96 86.2398 1351.72 85.879 1352.27 85.2576C1352.82 84.6098 1353.11 83.654 1353.13 82.3902L1361.56 83.6378ZM1373.36 63.5654C1375.88 63.3005 1378.17 63.3818 1380.22 63.8094C1382.31 64.2078 1384.18 64.9496 1385.85 66.0349L1382.74 72.398C1381.4 71.6535 1380.01 71.0884 1378.58 70.7027C1377.17 70.3143 1375.67 70.2038 1374.07 70.3711C1373.38 70.4436 1372.83 70.5552 1372.42 70.706C1372.03 70.8539 1371.76 71.0305 1371.59 71.2358C1371.45 71.4382 1371.39 71.6589 1371.42 71.8977C1371.45 72.2161 1371.71 72.4298 1372.21 72.5388C1372.73 72.645 1373.37 72.7519 1374.13 72.8596L1377.84 73.3147C1380.59 73.6433 1382.7 74.3335 1384.18 75.3852C1385.68 76.4342 1386.55 78.02 1386.77 80.1426C1386.99 82.2653 1386.66 84.0708 1385.77 85.5593C1384.88 87.0212 1383.58 88.1773 1381.87 89.0274C1380.19 89.8748 1378.23 90.4156 1376 90.6499C1374.33 90.8256 1372.65 90.8553 1370.94 90.7392C1369.24 90.5965 1367.64 90.3085 1366.14 89.8754C1364.65 89.4157 1363.34 88.8158 1362.21 88.0755L1365.23 81.6013C1366.07 82.1307 1367.06 82.5903 1368.2 82.9801C1369.33 83.3433 1370.5 83.6095 1371.7 83.7787C1372.9 83.9478 1374 83.9794 1375.01 83.8735C1375.65 83.8065 1376.15 83.7005 1376.51 83.5553C1376.87 83.4101 1377.1 83.251 1377.22 83.0778C1377.36 82.8754 1377.42 82.6548 1377.39 82.416C1377.35 82.0445 1377.16 81.7826 1376.83 81.6304C1376.52 81.4753 1375.95 81.3467 1375.14 81.2447L1371.06 80.7874C1369.62 80.6168 1368.24 80.3331 1366.91 79.9363C1365.58 79.5395 1364.47 78.8788 1363.56 77.9542C1362.66 77.0031 1362.11 75.652 1361.93 73.9008C1361.74 72.0965 1362.05 70.4676 1362.87 69.0141C1363.7 67.5577 1365 66.3618 1366.75 65.4265C1368.53 64.4618 1370.73 63.8415 1373.36 63.5654Z" fill="#F53531"/>
<path d="M1453.12 47.9671L1457.72 64.7389L1475.09 65.7563L1458.32 70.3614L1457.3 87.7241L1452.69 70.9524L1435.33 69.935L1452.1 65.3299L1453.12 47.9671Z" fill="#F53531"/>
<rect width="1671.3" height="104.247" transform="translate(-58.0859 47.4483) rotate(3.08135)" fill="#F53531"/>
<path d="M-9.29615 89.8436L-10.105 104.869C-10.3172 108.812 -11.5413 111.698 -13.7772 113.528C-15.9865 115.36 -19.2224 116.161 -23.4849 115.931C-27.7474 115.702 -30.8919 114.557 -32.9185 112.498C-34.9184 110.44 -35.8122 107.439 -35.5999 103.496L-34.7911 88.4712L-25.4403 88.9745L-26.2878 104.719C-26.3596 106.051 -26.121 107.079 -25.5722 107.803C-25.022 108.501 -24.2007 108.879 -23.1085 108.938C-21.9895 108.998 -21.1191 108.711 -20.4972 108.077C-19.8738 107.416 -19.5263 106.419 -19.4546 105.087L-18.607 89.3424L-9.29615 89.8436ZM18.8446 90.9577C21.6419 91.1083 24.0108 91.7702 25.9515 92.9434C27.8922 94.1165 29.3408 95.7441 30.2975 97.8262C31.2541 99.9082 31.655 102.388 31.5001 105.265C31.3452 108.142 30.6805 110.564 29.5059 112.532C28.3312 114.499 26.7162 115.962 24.6608 116.92C22.6054 117.878 20.1791 118.282 17.3818 118.131C14.6112 117.982 12.2423 117.32 10.275 116.145C8.33428 114.972 6.87231 113.344 5.88904 111.26C4.93241 109.178 4.53154 106.699 4.68642 103.822C4.84131 100.944 5.50605 98.5222 6.68067 96.5549C7.88192 94.589 9.51025 93.127 11.5656 92.1689C13.6477 91.2123 16.074 90.8086 18.8446 90.9577ZM18.4682 97.9508C17.5624 97.9021 16.8036 98.1017 16.1917 98.5497C15.6078 98.9725 15.1436 99.6555 14.7989 100.599C14.4809 101.543 14.2803 102.788 14.1971 104.334C14.1153 105.852 14.1811 107.111 14.3945 108.111C14.6359 109.086 15.0234 109.828 15.5571 110.338C16.1188 110.823 16.8525 111.089 17.7583 111.138C18.6641 111.187 19.4089 111 19.9927 110.577C20.6046 110.129 21.0696 109.433 21.3876 108.488C21.7071 107.516 21.9077 106.272 21.9894 104.753C22.0726 103.208 22.0068 101.949 21.792 100.975C21.5773 100.002 21.189 99.2729 20.6273 98.7885C20.0937 98.2788 19.374 97.9996 18.4682 97.9508ZM56.8382 100.257L44.2905 99.5814L44.0926 103.258L54.2427 103.804L53.8748 110.637L43.7248 110.091L43.2386 119.122L33.9278 118.621L35.3475 92.2469L57.2061 93.4235L56.8382 100.257ZM86.2582 94.9875C89.6948 95.1725 92.2906 96.087 94.0456 97.7311C95.8021 99.3486 96.6122 101.423 96.4759 103.954C96.3196 106.857 95.2962 108.993 93.4058 110.361C91.542 111.73 88.8918 112.322 85.4552 112.137L84.5103 112.567L80.1146 112.331L79.6435 121.082L70.5324 120.591L71.9522 94.2173L86.2582 94.9875ZM84.0402 106.41C85.0259 106.463 85.7678 106.329 86.266 106.009C86.7922 105.663 87.0798 105.037 87.1285 104.132C87.1758 103.253 86.9565 102.613 86.4704 102.213C86.0109 101.814 85.2883 101.588 84.3026 101.535L80.7062 101.341L80.4437 106.217L84.0402 106.41ZM89.4494 108.665L96.9865 122.016L86.8764 121.471L81.3441 109.591L89.4494 108.665ZM112.464 95.9974C115.261 96.148 117.63 96.8098 119.571 97.983C121.511 99.1562 122.96 100.784 123.916 102.866C124.873 104.948 125.274 107.428 125.119 110.305C124.964 113.182 124.299 115.604 123.125 117.571C121.95 119.539 120.335 121.001 118.28 121.959C116.224 122.918 113.798 123.321 111.001 123.171C108.23 123.022 105.861 122.36 103.894 121.185C101.953 120.012 100.491 118.384 99.5081 116.3C98.5514 114.218 98.1506 111.738 98.3054 108.861C98.4603 105.984 99.1251 103.562 100.3 101.595C101.501 99.6286 103.129 98.1667 105.185 97.2086C107.267 96.252 109.693 95.8482 112.464 95.9974ZM112.087 102.991C111.181 102.942 110.423 103.141 109.811 103.589C109.227 104.012 108.763 104.695 108.418 105.638C108.1 106.583 107.899 107.828 107.816 109.373C107.734 110.892 107.8 112.151 108.014 113.151C108.255 114.126 108.642 114.868 109.176 115.378C109.738 115.862 110.472 116.129 111.377 116.178C112.283 116.226 113.028 116.039 113.612 115.617C114.224 115.169 114.689 114.472 115.007 113.528C115.326 112.556 115.527 111.311 115.608 109.793C115.692 108.248 115.626 106.988 115.411 106.015C115.196 105.041 114.808 104.313 114.246 103.828C113.713 103.318 112.993 103.039 112.087 102.991ZM127.547 123.661L128.967 97.2865L144.072 98.0997C147.4 98.3056 149.846 99.0383 151.408 100.298C152.971 101.531 153.69 103.32 153.563 105.664C153.479 107.236 152.928 108.542 151.91 109.583C150.892 110.623 149.349 111.235 147.282 111.418L147.28 111.458C149.558 111.821 151.2 112.59 152.205 113.767C153.211 114.943 153.668 116.384 153.576 118.088C153.451 120.406 152.571 122.109 150.936 123.196C149.33 124.259 146.914 124.703 143.691 124.53L127.547 123.661ZM136.785 118.066L141.54 118.322C142.366 118.367 142.988 118.24 143.404 117.942C143.849 117.618 144.089 117.137 144.123 116.498C144.156 115.885 143.968 115.407 143.559 115.065C143.177 114.723 142.573 114.531 141.747 114.486L136.992 114.23L136.785 118.066ZM137.327 107.996L141.483 108.22C143.081 108.306 143.915 107.71 143.984 106.431C144.053 105.152 143.288 104.47 141.69 104.384L137.534 104.16L137.327 107.996ZM169.712 99.0792C172.509 99.2297 174.878 99.8916 176.819 101.065C178.76 102.238 180.208 103.866 181.165 105.948C182.122 108.03 182.522 110.509 182.368 113.386C182.213 116.264 181.548 118.686 180.373 120.653C179.199 122.621 177.584 124.083 175.528 125.041C173.473 125.999 171.047 126.403 168.249 126.252C165.479 126.103 163.11 125.441 161.142 124.267C159.202 123.094 157.74 121.465 156.757 119.382C155.8 117.3 155.399 114.82 155.554 111.943C155.709 109.066 156.374 106.644 157.548 104.676C158.749 102.71 160.378 101.248 162.433 100.29C164.515 99.3338 166.942 98.93 169.712 99.0792ZM169.336 106.072C168.43 106.024 167.671 106.223 167.059 106.671C166.475 107.094 166.011 107.777 165.666 108.72C165.348 109.665 165.148 110.91 165.065 112.455C164.983 113.974 165.049 115.233 165.262 116.233C165.503 117.208 165.891 117.95 166.425 118.46C166.986 118.944 167.72 119.211 168.626 119.259C169.532 119.308 170.276 119.121 170.86 118.698C171.472 118.25 171.937 117.554 172.255 116.609C172.575 115.638 172.775 114.393 172.857 112.874C172.94 111.329 172.874 110.07 172.66 109.097C172.445 108.123 172.057 107.394 171.495 106.91C170.961 106.4 170.241 106.121 169.336 106.072ZM209.621 101.628L209.253 108.462L201.021 108.018L199.969 127.559L190.659 127.058L191.71 107.517L183.439 107.072L183.806 100.239L209.621 101.628ZM221.711 102.279L220.291 128.653L210.98 128.152L212.4 101.778L221.711 102.279ZM249.498 122.13C248.908 124.156 247.993 125.763 246.754 126.952C245.541 128.142 244.093 128.973 242.411 129.443C240.731 129.887 238.879 130.055 236.854 129.946C234.083 129.796 231.714 129.135 229.747 127.96C227.806 126.787 226.344 125.158 225.361 123.075C224.404 120.993 224.004 118.513 224.158 115.636C224.313 112.759 224.978 110.337 226.153 108.369C227.354 106.404 228.982 104.942 231.038 103.983C233.12 103.027 235.546 102.623 238.317 102.772C240.261 102.877 242.058 103.254 243.706 103.904C245.356 104.527 246.722 105.456 247.804 106.69C248.913 107.925 249.603 109.498 249.875 111.41L241.715 114.096C241.595 112.353 241.215 111.211 240.577 110.669C239.965 110.128 239.166 109.831 238.18 109.778C237.274 109.73 236.489 109.928 235.823 110.373C235.186 110.793 234.681 111.487 234.309 112.455C233.964 113.399 233.751 114.63 233.669 116.148C233.589 117.64 233.655 118.886 233.869 119.886C234.109 120.887 234.535 121.645 235.149 122.159C235.764 122.646 236.604 122.919 237.67 122.976C238.629 123.028 239.43 122.79 240.073 122.264C240.717 121.711 241.153 120.812 241.38 119.569L249.498 122.13ZM264.321 104.172C266.852 104.308 269.099 104.75 271.063 105.497C273.055 106.219 274.79 107.247 276.267 108.582L272.188 114.374C270.984 113.428 269.703 112.651 268.346 112.043C267.016 111.437 265.552 111.091 263.954 111.005C263.261 110.968 262.699 110.991 262.267 111.075C261.861 111.16 261.56 111.291 261.364 111.467C261.194 111.645 261.103 111.854 261.09 112.094C261.072 112.413 261.299 112.666 261.77 112.852C262.268 113.039 262.884 113.246 263.62 113.472L267.212 114.507C269.869 115.265 271.845 116.28 273.139 117.551C274.46 118.825 275.063 120.527 274.948 122.658C274.834 124.79 274.22 126.52 273.106 127.849C271.994 129.152 270.527 130.088 268.707 130.658C266.913 131.23 264.897 131.455 262.659 131.335C260.98 131.244 259.31 131.007 257.647 130.624C255.986 130.214 254.452 129.677 253.045 129.014C251.64 128.324 250.44 127.524 249.447 126.616L253.453 120.7C254.192 121.354 255.095 121.964 256.16 122.529C257.226 123.067 258.337 123.514 259.494 123.87C260.65 124.227 261.735 124.432 262.747 124.486C263.386 124.521 263.895 124.495 264.274 124.408C264.653 124.322 264.913 124.202 265.055 124.05C265.225 123.872 265.316 123.663 265.329 123.423C265.349 123.05 265.204 122.762 264.895 122.558C264.612 122.356 264.076 122.14 263.286 121.91L259.338 120.816C257.943 120.42 256.62 119.922 255.37 119.32C254.12 118.719 253.123 117.89 252.378 116.835C251.635 115.753 251.311 114.332 251.405 112.574C251.503 110.763 252.068 109.203 253.1 107.896C254.159 106.591 255.627 105.614 257.506 104.967C259.412 104.295 261.684 104.03 264.321 104.172Z" fill="black"/>
<path d="M345.545 101.359L347.445 118.647L364.429 122.392L347.141 124.292L343.396 141.277L341.495 123.988L324.511 120.243L341.799 118.343L345.545 101.359Z" fill="black"/>
<path d="M439.972 114.028L439.163 129.054C438.951 132.997 437.727 135.883 435.491 137.713C433.281 139.544 430.045 140.345 425.783 140.116C421.52 139.887 418.376 138.742 416.349 136.683C414.35 134.625 413.456 131.624 413.668 127.681L414.477 112.656L423.828 113.159L422.98 128.904C422.908 130.236 423.147 131.264 423.696 131.988C424.246 132.686 425.067 133.064 426.159 133.123C427.278 133.183 428.149 132.896 428.771 132.262C429.394 131.6 429.742 130.604 429.813 129.272L430.661 113.527L439.972 114.028ZM468.113 115.143C470.91 115.293 473.279 115.955 475.219 117.128C477.16 118.301 478.609 119.929 479.565 122.011C480.522 124.093 480.923 126.573 480.768 129.45C480.613 132.327 479.948 134.749 478.774 136.717C477.599 138.684 475.984 140.147 473.929 141.105C471.873 142.063 469.447 142.466 466.65 142.316C463.879 142.167 461.51 141.505 459.543 140.33C457.602 139.157 456.14 137.529 455.157 135.445C454.2 133.363 453.799 130.884 453.954 128.006C454.109 125.129 454.774 122.707 455.949 120.74C457.15 118.774 458.778 117.312 460.834 116.354C462.916 115.397 465.342 114.993 468.113 115.143ZM467.736 122.136C466.83 122.087 466.071 122.287 465.46 122.735C464.876 123.157 464.411 123.84 464.067 124.784C463.749 125.728 463.548 126.973 463.465 128.518C463.383 130.037 463.449 131.296 463.662 132.296C463.904 133.271 464.291 134.013 464.825 134.523C465.387 135.007 466.12 135.274 467.026 135.323C467.932 135.372 468.677 135.185 469.261 134.762C469.872 134.314 470.337 133.617 470.656 132.673C470.975 131.701 471.176 130.456 471.257 128.938C471.34 127.393 471.275 126.133 471.06 125.16C470.845 124.187 470.457 123.458 469.895 122.973C469.362 122.464 468.642 122.184 467.736 122.136ZM506.106 124.442L493.558 123.766L493.361 127.443L503.511 127.989L503.143 134.822L492.993 134.276L492.507 143.307L483.196 142.806L484.615 116.432L506.474 117.608L506.106 124.442ZM535.526 119.172C538.963 119.357 541.558 120.272 543.314 121.916C545.07 123.533 545.88 125.608 545.744 128.138C545.588 131.042 544.564 133.178 542.674 134.546C540.81 135.915 538.16 136.507 534.723 136.322L533.778 136.752L529.382 136.515L528.911 145.267L519.8 144.776L521.22 118.402L535.526 119.172ZM533.308 130.595C534.294 130.648 535.036 130.514 535.534 130.194C536.06 129.848 536.348 129.222 536.396 128.317C536.444 127.437 536.224 126.798 535.738 126.398C535.279 125.999 534.556 125.773 533.571 125.72L529.974 125.526L529.712 130.401L533.308 130.595ZM538.717 132.85L546.254 146.2L536.144 145.656L530.612 133.776L538.717 132.85ZM561.732 120.182C564.529 120.333 566.898 120.995 568.838 122.168C570.779 123.341 572.228 124.969 573.184 127.051C574.141 129.133 574.542 131.612 574.387 134.49C574.232 137.367 573.567 139.789 572.393 141.756C571.218 143.724 569.603 145.186 567.548 146.144C565.492 147.102 563.066 147.506 560.269 147.356C557.498 147.206 555.129 146.545 553.162 145.37C551.221 144.197 549.759 142.568 548.776 140.485C547.819 138.403 547.418 135.923 547.573 133.046C547.728 130.169 548.393 127.747 549.568 125.779C550.769 123.814 552.397 122.352 554.453 121.393C556.535 120.437 558.961 120.033 561.732 120.182ZM561.355 127.175C560.449 127.127 559.69 127.326 559.079 127.774C558.495 128.197 558.03 128.88 557.686 129.823C557.368 130.768 557.167 132.013 557.084 133.558C557.002 135.077 557.068 136.336 557.281 137.336C557.523 138.311 557.91 139.053 558.444 139.563C559.006 140.047 559.739 140.314 560.645 140.362C561.551 140.411 562.296 140.224 562.88 139.801C563.492 139.353 563.956 138.657 564.275 137.712C564.594 136.741 564.795 135.496 564.876 133.978C564.96 132.432 564.894 131.173 564.679 130.2C564.464 129.226 564.076 128.497 563.514 128.013C562.981 127.503 562.261 127.224 561.355 127.175ZM576.815 147.846L578.234 121.471L593.34 122.285C596.668 122.49 599.114 123.223 600.675 124.483C602.239 125.716 602.957 127.505 602.831 129.849C602.747 131.421 602.195 132.727 601.178 133.768C600.16 134.808 598.617 135.42 596.55 135.602L596.548 135.642C598.826 136.006 600.468 136.775 601.473 137.951C602.479 139.128 602.936 140.568 602.844 142.273C602.719 144.591 601.839 146.294 600.204 147.381C598.597 148.444 596.182 148.888 592.959 148.715L576.815 147.846ZM586.053 142.251L590.808 142.507C591.634 142.552 592.255 142.425 592.672 142.127C593.117 141.803 593.357 141.322 593.391 140.682C593.424 140.07 593.236 139.592 592.827 139.249C592.445 138.908 591.841 138.715 591.015 138.671L586.259 138.415L586.053 142.251ZM586.595 132.181L590.751 132.405C592.349 132.491 593.183 131.894 593.252 130.616C593.321 129.337 592.556 128.655 590.957 128.569L586.801 128.345L586.595 132.181ZM618.98 123.264C621.777 123.415 624.146 124.076 626.087 125.25C628.028 126.423 629.476 128.05 630.433 130.133C631.389 132.215 631.79 134.694 631.635 137.571C631.481 140.449 630.816 142.871 629.641 144.838C628.467 146.805 626.852 148.268 624.796 149.226C622.741 150.184 620.314 150.588 617.517 150.437C614.747 150.288 612.378 149.626 610.41 148.452C608.47 147.279 607.008 145.65 606.024 143.567C605.068 141.485 604.667 139.005 604.822 136.128C604.977 133.251 605.641 130.828 606.816 128.861C608.017 126.895 609.646 125.433 611.701 124.475C613.783 123.519 616.209 123.115 618.98 123.264ZM618.604 130.257C617.698 130.208 616.939 130.408 616.327 130.856C615.743 131.279 615.279 131.962 614.934 132.905C614.616 133.85 614.416 135.095 614.332 136.64C614.251 138.158 614.317 139.418 614.53 140.418C614.771 141.393 615.159 142.135 615.692 142.644C616.254 143.129 616.988 143.395 617.894 143.444C618.799 143.493 619.544 143.306 620.128 142.883C620.74 142.435 621.205 141.739 621.523 140.794C621.842 139.823 622.043 138.578 622.125 137.059C622.208 135.514 622.142 134.255 621.927 133.282C621.713 132.308 621.324 131.579 620.763 131.095C620.229 130.585 619.509 130.306 618.604 130.257ZM658.889 125.813L658.521 132.646L650.289 132.203L649.237 151.744L639.926 151.243L640.978 131.702L632.706 131.257L633.074 124.424L658.889 125.813ZM670.979 126.464L669.559 152.838L660.248 152.337L661.668 125.963L670.979 126.464ZM698.766 146.315C698.176 148.34 697.261 149.948 696.021 151.137C694.809 152.327 693.361 153.158 691.679 153.628C689.999 154.072 688.146 154.239 686.122 154.13C683.351 153.981 680.982 153.319 679.015 152.145C677.074 150.972 675.612 149.343 674.629 147.26C673.672 145.178 673.271 142.698 673.426 139.821C673.581 136.944 674.246 134.522 675.421 132.554C676.622 130.588 678.25 129.126 680.306 128.168C682.388 127.212 684.814 126.808 687.585 126.957C689.529 127.062 691.326 127.439 692.974 128.089C694.624 128.712 695.99 129.641 697.072 130.874C698.181 132.11 698.871 133.683 699.143 135.595L690.983 138.281C690.863 136.538 690.483 135.396 689.845 134.854C689.232 134.313 688.434 134.016 687.448 133.963C686.542 133.914 685.757 134.113 685.091 134.558C684.454 134.978 683.949 135.672 683.577 136.64C683.232 137.584 683.019 138.814 682.937 140.333C682.857 141.825 682.923 143.071 683.137 144.071C683.376 145.072 683.803 145.83 684.417 146.344C685.032 146.831 685.872 147.104 686.938 147.161C687.897 147.213 688.698 146.975 689.341 146.449C689.985 145.896 690.421 144.997 690.648 143.754L698.766 146.315ZM713.589 128.357C716.12 128.493 718.367 128.935 720.331 129.682C722.323 130.403 724.057 131.432 725.535 132.767L721.456 138.559C720.251 137.613 718.971 136.836 717.614 136.228C716.284 135.622 714.82 135.276 713.221 135.19C712.529 135.153 711.966 135.176 711.534 135.26C711.129 135.345 710.828 135.476 710.632 135.652C710.462 135.83 710.37 136.039 710.358 136.279C710.34 136.598 710.567 136.851 711.038 137.037C711.536 137.224 712.152 137.43 712.888 137.657L716.48 138.692C719.137 139.45 721.113 140.464 722.407 141.736C723.728 143.01 724.331 144.712 724.216 146.843C724.102 148.975 723.487 150.705 722.374 152.034C721.262 153.337 719.795 154.273 717.975 154.843C716.18 155.415 714.165 155.64 711.927 155.52C710.248 155.429 708.578 155.192 706.915 154.809C705.254 154.399 703.72 153.862 702.313 153.199C700.907 152.508 699.708 151.709 698.715 150.801L702.721 144.885C703.46 145.539 704.362 146.149 705.427 146.714C706.494 147.252 707.605 147.699 708.762 148.055C709.918 148.411 711.002 148.617 712.015 148.671C712.654 148.706 713.163 148.68 713.542 148.593C713.921 148.507 714.181 148.387 714.323 148.234C714.493 148.057 714.584 147.848 714.597 147.608C714.617 147.235 714.472 146.947 714.163 146.743C713.88 146.541 713.343 146.325 712.554 146.095L708.606 145.001C707.211 144.605 705.888 144.107 704.638 143.505C703.388 142.903 702.391 142.075 701.646 141.02C700.903 139.938 700.579 138.517 700.673 136.759C700.771 134.948 701.336 133.388 702.368 132.081C703.427 130.776 704.895 129.799 706.774 129.152C708.68 128.48 710.952 128.215 713.589 128.357Z" fill="black"/>
<path d="M794.812 125.543L796.713 142.832L813.697 146.577L796.409 148.477L792.664 165.462L790.763 148.173L773.779 144.428L791.067 142.528L794.812 125.543Z" fill="black"/>
<path d="M889.24 138.213L888.431 153.239C888.219 157.181 886.994 160.068 884.759 161.898C882.549 163.729 879.313 164.53 875.051 164.301C870.788 164.071 867.644 162.927 865.617 160.867C863.617 158.809 862.724 155.809 862.936 151.866L863.745 136.841L873.095 137.344L872.248 153.089C872.176 154.421 872.415 155.449 872.964 156.173C873.514 156.871 874.335 157.249 875.427 157.308C876.546 157.368 877.417 157.081 878.039 156.446C878.662 155.785 879.01 154.789 879.081 153.457L879.929 137.712L889.24 138.213ZM917.38 139.327C920.178 139.478 922.547 140.14 924.487 141.313C926.428 142.486 927.877 144.114 928.833 146.196C929.79 148.278 930.191 150.758 930.036 153.635C929.881 156.512 929.216 158.934 928.042 160.901C926.867 162.869 925.252 164.331 923.197 165.29C921.141 166.248 918.715 166.651 915.918 166.501C913.147 166.352 910.778 165.69 908.811 164.515C906.87 163.342 905.408 161.714 904.425 159.63C903.468 157.548 903.067 155.068 903.222 152.191C903.377 149.314 904.042 146.892 905.216 144.925C906.418 142.959 908.046 141.497 910.101 140.539C912.183 139.582 914.61 139.178 917.38 139.327ZM917.004 146.321C916.098 146.272 915.339 146.471 914.727 146.919C914.144 147.342 913.679 148.025 913.335 148.968C913.017 149.913 912.816 151.158 912.733 152.703C912.651 154.222 912.717 155.481 912.93 156.481C913.172 157.456 913.559 158.198 914.093 158.708C914.655 159.192 915.388 159.459 916.294 159.508C917.2 159.556 917.945 159.369 918.528 158.947C919.14 158.499 919.605 157.802 919.923 156.858C920.243 155.886 920.443 154.641 920.525 153.123C920.608 151.578 920.543 150.318 920.328 149.345C920.113 148.372 919.725 147.643 919.163 147.158C918.629 146.648 917.91 146.369 917.004 146.321ZM955.374 148.627L942.826 147.951L942.628 151.627L952.778 152.174L952.411 159.007L942.261 158.461L941.774 167.492L932.464 166.991L933.883 140.617L955.742 141.793L955.374 148.627ZM984.794 143.357C988.231 143.542 990.826 144.457 992.581 146.101C994.338 147.718 995.148 149.792 995.012 152.323C994.855 155.227 993.832 157.363 991.942 158.731C990.078 160.1 987.428 160.692 983.991 160.507L983.046 160.937L978.65 160.7L978.179 169.452L969.068 168.961L970.488 142.587L984.794 143.357ZM982.576 154.78C983.562 154.833 984.304 154.699 984.802 154.379C985.328 154.033 985.616 153.407 985.664 152.501C985.712 151.622 985.492 150.983 985.006 150.582C984.547 150.184 983.824 149.958 982.838 149.905L979.242 149.711L978.98 154.586L982.576 154.78ZM987.985 157.035L995.522 170.385L985.412 169.841L979.88 157.961L987.985 157.035ZM1011 144.367C1013.8 144.518 1016.17 145.18 1018.11 146.353C1020.05 147.526 1021.5 149.153 1022.45 151.236C1023.41 153.318 1023.81 155.797 1023.65 158.674C1023.5 161.552 1022.84 163.974 1021.66 165.941C1020.49 167.908 1018.87 169.371 1016.82 170.329C1014.76 171.287 1012.33 171.691 1009.54 171.54C1006.77 171.391 1004.4 170.729 1002.43 169.555C1000.49 168.382 999.027 166.753 998.044 164.67C997.087 162.588 996.686 160.108 996.841 157.231C996.996 154.354 997.661 151.932 998.835 149.964C1000.04 147.998 1001.67 146.536 1003.72 145.578C1005.8 144.622 1008.23 144.218 1011 144.367ZM1010.62 151.36C1009.72 151.311 1008.96 151.511 1008.35 151.959C1007.76 152.382 1007.3 153.065 1006.95 154.008C1006.64 154.953 1006.44 156.198 1006.35 157.743C1006.27 159.261 1006.34 160.521 1006.55 161.521C1006.79 162.496 1007.18 163.238 1007.71 163.747C1008.27 164.232 1009.01 164.498 1009.91 164.547C1010.82 164.596 1011.56 164.409 1012.15 163.986C1012.76 163.538 1013.22 162.842 1013.54 161.897C1013.86 160.926 1014.06 159.681 1014.14 158.162C1014.23 156.617 1014.16 155.358 1013.95 154.385C1013.73 153.411 1013.34 152.682 1012.78 152.198C1012.25 151.688 1011.53 151.409 1010.62 151.36ZM1026.08 172.03L1027.5 145.656L1042.61 146.469C1045.94 146.675 1048.38 147.408 1049.94 148.668C1051.51 149.901 1052.23 151.689 1052.1 154.034C1052.01 155.606 1051.46 156.912 1050.45 157.952C1049.43 158.993 1047.89 159.605 1045.82 159.787L1045.82 159.827C1048.09 160.19 1049.74 160.96 1050.74 162.136C1051.75 163.313 1052.2 164.753 1052.11 166.458C1051.99 168.776 1051.11 170.479 1049.47 171.566C1047.87 172.628 1045.45 173.073 1042.23 172.899L1026.08 172.03ZM1035.32 166.436L1040.08 166.692C1040.9 166.736 1041.52 166.61 1041.94 166.311C1042.39 165.988 1042.62 165.507 1042.66 164.867C1042.69 164.255 1042.5 163.777 1042.1 163.434C1041.71 163.093 1041.11 162.9 1040.28 162.856L1035.53 162.6L1035.32 166.436ZM1035.86 156.366L1040.02 156.59C1041.62 156.676 1042.45 156.079 1042.52 154.801C1042.59 153.522 1041.82 152.839 1040.23 152.753L1036.07 152.53L1035.86 156.366ZM1068.25 147.449C1071.05 147.599 1073.41 148.261 1075.35 149.434C1077.3 150.608 1078.74 152.235 1079.7 154.317C1080.66 156.399 1081.06 158.879 1080.9 161.756C1080.75 164.633 1080.08 167.056 1078.91 169.023C1077.73 170.99 1076.12 172.453 1074.06 173.411C1072.01 174.369 1069.58 174.773 1066.79 174.622C1064.01 174.473 1061.65 173.811 1059.68 172.637C1057.74 171.463 1056.28 169.835 1055.29 167.752C1054.34 165.67 1053.93 163.19 1054.09 160.313C1054.24 157.436 1054.91 155.013 1056.08 153.046C1057.29 151.08 1058.91 149.618 1060.97 148.66C1063.05 147.703 1065.48 147.3 1068.25 147.449ZM1067.87 154.442C1066.97 154.393 1066.21 154.593 1065.59 155.041C1065.01 155.464 1064.55 156.147 1064.2 157.09C1063.88 158.035 1063.68 159.28 1063.6 160.825C1063.52 162.343 1063.58 163.602 1063.8 164.603C1064.04 165.577 1064.43 166.32 1064.96 166.829C1065.52 167.314 1066.26 167.58 1067.16 167.629C1068.07 167.678 1068.81 167.491 1069.4 167.068C1070.01 166.62 1070.47 165.924 1070.79 164.979C1071.11 164.008 1071.31 162.763 1071.39 161.244C1071.48 159.699 1071.41 158.44 1071.2 157.466C1070.98 156.493 1070.59 155.764 1070.03 155.28C1069.5 154.77 1068.78 154.491 1067.87 154.442ZM1108.16 149.998L1107.79 156.831L1099.56 156.388L1098.51 175.929L1089.19 175.428L1090.25 155.887L1081.97 155.442L1082.34 148.608L1108.16 149.998ZM1120.25 150.649L1118.83 177.023L1109.52 176.522L1110.94 150.148L1120.25 150.649ZM1148.03 170.5C1147.44 172.525 1146.53 174.132 1145.29 175.321C1144.08 176.512 1142.63 177.342 1140.95 177.813C1139.27 178.257 1137.41 178.424 1135.39 178.315C1132.62 178.166 1130.25 177.504 1128.28 176.33C1126.34 175.156 1124.88 173.528 1123.9 171.445C1122.94 169.363 1122.54 166.883 1122.69 164.006C1122.85 161.129 1123.51 158.706 1124.69 156.739C1125.89 154.773 1127.52 153.311 1129.57 152.353C1131.66 151.397 1134.08 150.993 1136.85 151.142C1138.8 151.247 1140.59 151.624 1142.24 152.274C1143.89 152.897 1145.26 153.825 1146.34 155.059C1147.45 156.294 1148.14 157.868 1148.41 159.779L1140.25 162.466C1140.13 160.723 1139.75 159.58 1139.11 159.038C1138.5 158.498 1137.7 158.201 1136.72 158.148C1135.81 158.099 1135.02 158.297 1134.36 158.743C1133.72 159.162 1133.22 159.857 1132.84 160.825C1132.5 161.768 1132.29 162.999 1132.2 164.518C1132.12 166.01 1132.19 167.256 1132.4 168.256C1132.64 169.257 1133.07 170.015 1133.68 170.529C1134.3 171.016 1135.14 171.288 1136.21 171.346C1137.16 171.397 1137.97 171.16 1138.61 170.634C1139.25 170.08 1139.69 169.182 1139.92 167.939L1148.03 170.5ZM1162.86 152.542C1165.39 152.678 1167.64 153.12 1169.6 153.867C1171.59 154.588 1173.33 155.617 1174.8 156.952L1170.72 162.744C1169.52 161.797 1168.24 161.02 1166.88 160.413C1165.55 159.807 1164.09 159.461 1162.49 159.375C1161.8 159.338 1161.23 159.361 1160.8 159.445C1160.4 159.53 1160.1 159.66 1159.9 159.837C1159.73 160.015 1159.64 160.224 1159.63 160.463C1159.61 160.783 1159.84 161.036 1160.31 161.221C1160.8 161.408 1161.42 161.615 1162.16 161.842L1165.75 162.877C1168.41 163.634 1170.38 164.649 1171.68 165.921C1173 167.195 1173.6 168.897 1173.48 171.028C1173.37 173.159 1172.76 174.89 1171.64 176.219C1170.53 177.522 1169.06 178.458 1167.24 179.028C1165.45 179.599 1163.43 179.825 1161.19 179.704C1159.52 179.614 1157.85 179.377 1156.18 178.994C1154.52 178.584 1152.99 178.047 1151.58 177.383C1150.18 176.693 1148.98 175.894 1147.98 174.986L1151.99 169.069C1152.73 169.724 1153.63 170.333 1154.7 170.898C1155.76 171.437 1156.87 171.884 1158.03 172.24C1159.19 172.596 1160.27 172.802 1161.28 172.856C1161.92 172.89 1162.43 172.864 1162.81 172.778C1163.19 172.691 1163.45 172.572 1163.59 172.419C1163.76 172.241 1163.85 172.033 1163.86 171.793C1163.88 171.42 1163.74 171.131 1163.43 170.928C1163.15 170.725 1162.61 170.51 1161.82 170.28L1157.87 169.186C1156.48 168.79 1155.16 168.291 1153.91 167.69C1152.66 167.088 1151.66 166.26 1150.91 165.204C1150.17 164.122 1149.85 162.702 1149.94 160.944C1150.04 159.132 1150.6 157.573 1151.64 156.266C1152.69 154.96 1154.16 153.984 1156.04 153.337C1157.95 152.665 1160.22 152.4 1162.86 152.542Z" fill="black"/>
<path d="M1244.08 149.728L1245.98 167.017L1262.96 170.762L1245.68 172.662L1241.93 189.647L1240.03 172.358L1223.05 168.613L1240.34 166.713L1244.08 149.728Z" fill="black"/>
<path d="M1338.51 162.398L1337.7 177.423C1337.49 181.366 1336.26 184.253 1334.03 186.083C1331.82 187.914 1328.58 188.715 1324.32 188.486C1320.06 188.256 1316.91 187.112 1314.89 185.052C1312.89 182.994 1311.99 179.994 1312.2 176.051L1313.01 161.026L1322.36 161.529L1321.52 177.274C1321.44 178.606 1321.68 179.634 1322.23 180.358C1322.78 181.056 1323.6 181.434 1324.7 181.492C1325.81 181.553 1326.68 181.266 1327.31 180.631C1327.93 179.97 1328.28 178.973 1328.35 177.641L1329.2 161.897L1338.51 162.398ZM1366.65 163.512C1369.45 163.663 1371.81 164.325 1373.76 165.498C1375.7 166.671 1377.14 168.299 1378.1 170.381C1379.06 172.463 1379.46 174.942 1379.3 177.82C1379.15 180.697 1378.48 183.119 1377.31 185.086C1376.13 187.054 1374.52 188.516 1372.46 189.474C1370.41 190.432 1367.98 190.836 1365.19 190.686C1362.41 190.536 1360.05 189.875 1358.08 188.7C1356.14 187.527 1354.68 185.898 1353.69 183.815C1352.74 181.733 1352.34 179.253 1352.49 176.376C1352.64 173.499 1353.31 171.077 1354.48 169.109C1355.69 167.143 1357.31 165.682 1359.37 164.723C1361.45 163.767 1363.88 163.363 1366.65 163.512ZM1366.27 170.505C1365.37 170.457 1364.61 170.656 1364 171.104C1363.41 171.527 1362.95 172.21 1362.6 173.153C1362.28 174.098 1362.08 175.343 1362 176.888C1361.92 178.407 1361.98 179.666 1362.2 180.666C1362.44 181.641 1362.83 182.383 1363.36 182.893C1363.92 183.377 1364.66 183.644 1365.56 183.692C1366.47 183.741 1367.21 183.554 1367.8 183.131C1368.41 182.683 1368.87 181.987 1369.19 181.042C1369.51 180.071 1369.71 178.826 1369.79 177.308C1369.88 175.762 1369.81 174.503 1369.6 173.53C1369.38 172.556 1368.99 171.827 1368.43 171.343C1367.9 170.833 1367.18 170.554 1366.27 170.505ZM1404.64 172.811L1392.09 172.136L1391.9 175.812L1402.05 176.359L1401.68 183.192L1391.53 182.646L1391.04 191.677L1381.73 191.175L1383.15 164.801L1405.01 165.978L1404.64 172.811ZM1434.06 167.542C1437.5 167.727 1440.09 168.642 1441.85 170.286C1443.61 171.903 1444.42 173.977 1444.28 176.508C1444.12 179.412 1443.1 181.548 1441.21 182.915C1439.35 184.285 1436.7 184.877 1433.26 184.692L1432.31 185.122L1427.92 184.885L1427.45 193.636L1418.34 193.146L1419.76 166.772L1434.06 167.542ZM1431.84 178.965C1432.83 179.018 1433.57 178.884 1434.07 178.563C1434.6 178.218 1434.88 177.592 1434.93 176.686C1434.98 175.807 1434.76 175.167 1434.27 174.767C1433.81 174.368 1433.09 174.142 1432.11 174.089L1428.51 173.896L1428.25 178.771L1431.84 178.965ZM1437.25 181.22L1444.79 194.57L1434.68 194.026L1429.15 182.146L1437.25 181.22ZM1460.27 168.552C1463.06 168.702 1465.43 169.364 1467.37 170.538C1469.31 171.711 1470.76 173.338 1471.72 175.42C1472.68 177.502 1473.08 179.982 1472.92 182.859C1472.77 185.736 1472.1 188.159 1470.93 190.126C1469.75 192.093 1468.14 193.556 1466.08 194.514C1464.03 195.472 1461.6 195.876 1458.8 195.725C1456.03 195.576 1453.66 194.914 1451.7 193.74C1449.76 192.566 1448.29 190.938 1447.31 188.855C1446.36 186.773 1445.95 184.293 1446.11 181.416C1446.26 178.539 1446.93 176.116 1448.1 174.149C1449.3 172.183 1450.93 170.721 1452.99 169.763C1455.07 168.806 1457.5 168.403 1460.27 168.552ZM1459.89 175.545C1458.99 175.496 1458.23 175.696 1457.61 176.144C1457.03 176.567 1456.57 177.25 1456.22 178.193C1455.9 179.138 1455.7 180.383 1455.62 181.928C1455.54 183.446 1455.6 184.706 1455.82 185.706C1456.06 186.68 1456.45 187.423 1456.98 187.932C1457.54 188.417 1458.28 188.683 1459.18 188.732C1460.09 188.781 1460.83 188.594 1461.42 188.171C1462.03 187.723 1462.49 187.027 1462.81 186.082C1463.13 185.111 1463.33 183.866 1463.41 182.347C1463.5 180.802 1463.43 179.543 1463.21 178.569C1463 177.596 1462.61 176.867 1462.05 176.383C1461.52 175.873 1460.8 175.594 1459.89 175.545ZM1475.35 196.215L1476.77 169.841L1491.88 170.654C1495.2 170.86 1497.65 171.593 1499.21 172.853C1500.77 174.086 1501.49 175.874 1501.37 178.219C1501.28 179.79 1500.73 181.097 1499.71 182.137C1498.7 183.178 1497.15 183.789 1495.09 183.972L1495.08 184.012C1497.36 184.375 1499 185.145 1500.01 186.321C1501.01 187.497 1501.47 188.938 1501.38 190.643C1501.25 192.961 1500.37 194.663 1498.74 195.751C1497.13 196.813 1494.72 197.258 1491.49 197.084L1475.35 196.215ZM1484.59 190.621L1489.34 190.877C1490.17 190.921 1490.79 190.794 1491.21 190.496C1491.65 190.173 1491.89 189.691 1491.93 189.052C1491.96 188.439 1491.77 187.962 1491.36 187.619C1490.98 187.278 1490.38 187.085 1489.55 187.041L1484.8 186.785L1484.59 190.621ZM1485.13 180.551L1489.29 180.774C1490.89 180.86 1491.72 180.264 1491.79 178.985C1491.86 177.707 1491.09 177.024 1489.49 176.938L1485.34 176.714L1485.13 180.551ZM1517.52 171.634C1520.31 171.784 1522.68 172.446 1524.62 173.619C1526.56 174.792 1528.01 176.42 1528.97 178.502C1529.93 180.584 1530.33 183.064 1530.17 185.941C1530.02 188.818 1529.35 191.24 1528.18 193.208C1527 195.175 1525.39 196.638 1523.33 197.596C1521.28 198.554 1518.85 198.958 1516.05 198.807C1513.28 198.658 1510.91 197.996 1508.95 196.821C1507.01 195.648 1505.54 194.02 1504.56 191.936C1503.6 189.854 1503.2 187.375 1503.36 184.498C1503.51 181.62 1504.18 179.198 1505.35 177.231C1506.55 175.265 1508.18 173.803 1510.24 172.845C1512.32 171.888 1514.75 171.485 1517.52 171.634ZM1517.14 178.627C1516.23 178.578 1515.47 178.778 1514.86 179.226C1514.28 179.648 1513.81 180.331 1513.47 181.275C1513.15 182.219 1512.95 183.464 1512.87 185.01C1512.79 186.528 1512.85 187.787 1513.07 188.787C1513.31 189.762 1513.69 190.504 1514.23 191.014C1514.79 191.498 1515.52 191.765 1516.43 191.814C1517.34 191.863 1518.08 191.676 1518.66 191.253C1519.28 190.805 1519.74 190.109 1520.06 189.164C1520.38 188.192 1520.58 186.947 1520.66 185.429C1520.74 183.884 1520.68 182.625 1520.46 181.651C1520.25 180.678 1519.86 179.949 1519.3 179.464C1518.76 178.955 1518.05 178.676 1517.14 178.627ZM1557.42 174.183L1557.06 181.016L1548.82 180.573L1547.77 200.114L1538.46 199.613L1539.51 180.072L1531.24 179.626L1531.61 172.793L1557.42 174.183ZM1569.51 174.834L1568.09 201.208L1558.78 200.707L1560.2 174.332L1569.51 174.834ZM1597.3 194.685C1596.71 196.71 1595.8 198.317 1594.56 199.506C1593.34 200.697 1591.9 201.527 1590.22 201.998C1588.53 202.442 1586.68 202.609 1584.66 202.5C1581.89 202.351 1579.52 201.689 1577.55 200.514C1575.61 199.341 1574.15 197.713 1573.16 195.629C1572.21 193.547 1571.81 191.068 1571.96 188.191C1572.12 185.313 1572.78 182.891 1573.96 180.924C1575.16 178.958 1576.79 177.496 1578.84 176.538C1580.92 175.581 1583.35 175.178 1586.12 175.327C1588.06 175.431 1589.86 175.809 1591.51 176.458C1593.16 177.082 1594.53 178.01 1595.61 179.244C1596.72 180.479 1597.41 182.053 1597.68 183.964L1589.52 186.651C1589.4 184.908 1589.02 183.765 1588.38 183.223C1587.77 182.683 1586.97 182.386 1585.98 182.333C1585.08 182.284 1584.29 182.482 1583.63 182.927C1582.99 183.347 1582.49 184.041 1582.11 185.01C1581.77 185.953 1581.55 187.184 1581.47 188.703C1581.39 190.194 1581.46 191.44 1581.67 192.44C1581.91 193.442 1582.34 194.2 1582.95 194.714C1583.57 195.201 1584.41 195.473 1585.47 195.531C1586.43 195.582 1587.23 195.345 1587.88 194.818C1588.52 194.265 1588.96 193.367 1589.18 192.123L1597.3 194.685ZM1612.12 176.727C1614.66 176.863 1616.9 177.304 1618.87 178.051C1620.86 178.773 1622.59 179.802 1624.07 181.137L1619.99 186.929C1618.79 185.982 1617.51 185.205 1616.15 184.598C1614.82 183.992 1613.36 183.646 1611.76 183.56C1611.06 183.523 1610.5 183.546 1610.07 183.629C1609.66 183.714 1609.36 183.845 1609.17 184.022C1609 184.2 1608.91 184.408 1608.89 184.648C1608.88 184.968 1609.1 185.22 1609.57 185.406C1610.07 185.593 1610.69 185.8 1611.42 186.027L1615.02 187.062C1617.67 187.819 1619.65 188.834 1620.94 190.106C1622.26 191.379 1622.87 193.082 1622.75 195.213C1622.64 197.344 1622.02 199.074 1620.91 200.404C1619.8 201.707 1618.33 202.643 1616.51 203.213C1614.72 203.784 1612.7 204.01 1610.46 203.889C1608.78 203.799 1607.11 203.562 1605.45 203.179C1603.79 202.769 1602.26 202.232 1600.85 201.568C1599.44 200.878 1598.24 200.079 1597.25 199.17L1601.26 193.254C1602 193.909 1602.9 194.518 1603.96 195.083C1605.03 195.622 1606.14 196.069 1607.3 196.425C1608.45 196.781 1609.54 196.986 1610.55 197.041C1611.19 197.075 1611.7 197.049 1612.08 196.963C1612.46 196.876 1612.72 196.757 1612.86 196.604C1613.03 196.426 1613.12 196.217 1613.13 195.978C1613.15 195.605 1613.01 195.316 1612.7 195.113C1612.42 194.91 1611.88 194.694 1611.09 194.465L1607.14 193.371C1605.75 192.975 1604.42 192.476 1603.17 191.875C1601.92 191.273 1600.93 190.445 1600.18 189.389C1599.44 188.307 1599.11 186.887 1599.21 185.129C1599.31 183.317 1599.87 181.758 1600.9 180.451C1601.96 179.145 1603.43 178.169 1605.31 177.522C1607.22 176.85 1609.49 176.585 1612.12 176.727Z" fill="black"/>
</svg>
